<?xml version="1.0" encoding="utf-8"?>
<!-- Generator: Adobe Illustrator 27.5.0, SVG Export Plug-In . SVG Version: 6.00 Build 0)  -->
<svg version="1.1" xmlns="http://www.w3.org/2000/svg" xmlns:xlink="http://www.w3.org/1999/xlink" x="0px" y="0px"
	 viewBox="0 0 500 500" style="enable-background:new 0 0 500 500;" xml:space="preserve">
<g id="BACKGROUND">
	<rect style="fill:#FFFFFF;" width="500" height="500"/>
	<g>
		<path style="fill:#F7F7F7;" d="M472.504,247.145c-3.161-4.229-7.557-8.202-12.835-8.292c-4.103-0.07-7.947,2.305-10.594,5.442
			c-13.134,15.565-26.245,67.426,6.447,71.543C487.905,319.914,484.618,263.351,472.504,247.145z"/>
		<path style="fill:#F7F7F7;" d="M149.867,388.557c-38.759-29.127-63.841-77.25-60.847-125.64
			c3.084-49.851,34.094-94.011,70.824-127.857c22.814-21.023,48.546-39.388,77.507-50.511c28.961-11.123,61.401-14.649,91.269-6.264
			c38.743,10.878,70.42,41.442,87.035,78.093s19.066,78.732,11.594,118.274c-6.217,32.899-19.375,64.919-41.017,90.466
			C326.55,435.574,223.029,443.538,149.867,388.557z"/>
		<path style="fill:#F7F7F7;" d="M167.055,110.295c3.534-3.659,7.336-8.07,6.691-13.115c-0.503-3.936-3.783-7.107-7.514-8.458
			c-3.731-1.351-7.841-1.166-11.765-0.578c-15.497,2.319-55.805,22.8-43.894,43.86C125.176,157.825,156.514,121.208,167.055,110.295
			z"/>
		<path style="fill:#F7F7F7;" d="M467.9,213.032c2.077-9.693-3.654-20.469-12.853-24.165c-4.935-1.983-11.306-1.716-14.741,2.345
			c-6.749,7.981-2.87,28.378,5.425,34.524C455.115,232.687,465.844,222.626,467.9,213.032z"/>
	</g>
</g>
<g id="OBJECTS">
	<g>
		<g>
			<path style="fill:#EBEBEB;" d="M309.375,162.779c0,0,59.339,15.685,82.125,36.1c0,0-5.818,61.967-7.384,133.163
				c0,0-33.57,4.594-95.074-3.446c0,0-7.847-29.424-7.622-27.006c0.225,2.418-12.556-62.284-32.894-99.703L309.375,162.779z"/>
			<path style="fill:#EBEBEB;" d="M248.526,201.888c-19.87,29.11-50.746,116.572-50.746,116.572l35.597,34.55
				c18.464-28.122,53.57-93.843,53.57-93.843L248.526,201.888z"/>
		</g>
		<g>
			<g>
				<path style="fill:#38474F;" d="M255.865,426.06h139.52c0,0-8.302-72.603-33.076-114.068h-82.777
					C279.532,311.993,259.469,357.205,255.865,426.06z"/>
			</g>
			<g>
				<path style="fill:#263238;" d="M283.437,317.685c6.511,0.45,13.062,0.667,19.611,0.773c0.033,9.394-0.237,18.789-0.871,28.162
					c-0.036,0.536,0.429,1.115,0.944,1.224c6.086,1.284,5.925-7.244,6.247-11.007c0.52-6.059,1.059-12.117,1.532-18.18
					c0.004-0.046-0.014-0.077-0.015-0.121c1.423,0.004,2.848,0.015,4.268,0.012c10.586-0.023,21.167-0.392,31.729-1.119
					c0.941-0.065,0.956-1.52,0-1.477c-10.568,0.48-21.151,0.668-31.729,0.518c-10.606-0.15-21.143-0.804-31.716-1.535
					C281.667,314.811,281.678,317.563,283.437,317.685z M304.955,318.488c1.186,0.015,2.371,0.032,3.556,0.04
					c-0.009,0.046-0.034,0.079-0.039,0.128c-0.467,4.81-0.887,9.624-1.317,14.437c-0.207,2.317-0.414,4.634-0.62,6.951
					c-0.116,1.299-0.199,4.559-1.777,5.238C305.154,336.354,305.235,327.42,304.955,318.488z"/>
				<path style="fill:#263238;" d="M295.291,426.06h11.888c0.043-7.345,0.195-26.183,0.109-33.529
					c-0.109-7.802-0.178-15.625-0.609-23.427c-0.44-7.977-1.953-6.754-3.629-0.695c-2.734,9.882-4.455,20.037-5.889,30.208
					c-0.717,5.085-1.304,21.685-1.804,26.792C295.334,425.626,295.312,425.843,295.291,426.06z"/>
			</g>
		</g>
		<path style="fill:#E0E0E0;" d="M354.273,225.229c-0.144-0.852-0.293-1.703-0.447-2.553c-0.308-1.7-0.635-3.397-0.981-5.09
			c-0.677-3.308-1.459-6.596-2.302-9.866c-1.706-6.616-3.696-13.177-6.065-19.587c-1.323-3.58-2.742-7.126-4.211-10.649
			c-0.199-0.478-1.038-0.141-0.847,0.345c4.929,12.555,8.643,25.637,11.338,38.845c0.377,1.848,0.741,3.698,1.077,5.553
			c0.175,0.966,0.343,1.934,0.506,2.903c0.109,0.652,0.183,1.332,0.3,1.995c-0.918,0.203-1.87,0.322-2.784,0.488
			c-1.136,0.207-2.272,0.417-3.411,0.613l-3.417,0.59c-1.215,0.21-2.455,0.366-3.644,0.697c-0.898,0.251-0.779,1.759,0.216,1.675
			c2.358-0.199,4.717-0.801,7.042-1.236c1.135-0.212,2.273-0.414,3.41-0.616c1.206-0.214,2.455-0.544,3.678-0.618
			c0.483-0.029,0.942-0.4,0.922-0.923C354.621,226.941,354.416,226.072,354.273,225.229z"/>
		<g>
			<path style="fill:#EBEBEB;" d="M307.312,301.383c-7.22,73.6-7.56,112.35-16.41,116.93c-8.85,4.57-37.03-7.39-37.03-7.39
				c0.2-20.23,2.89-38.01,6.15-54.21c0.06-0.32,0.13-0.64,0.19-0.96c0.15-0.72,0.29-1.44,0.44-2.16c0.08-0.36,0.15-0.73,0.23-1.09
				c5.95-28.4,6.829-60.952,10.01-95.655L307.312,301.383z"/>
			<path style="fill:#E0E0E0;" d="M299.711,290.483c-1.004-4.32-2.15-8.6-3.605-12.791c-2.947-8.49-6.749-16.686-11.371-24.395
				c-2.341-3.904-4.879-7.712-7.677-11.308c2.521-0.721,5.046-1.428,7.571-2.135c2.962-0.829,5.926-1.729,8.933-2.376
				c0.635-0.137,0.763-1.094,0.182-1.39c-2.019-1.029-4.025-2.079-6.089-3.014c-2.068-0.937-4.137-1.874-6.205-2.81
				c-2.031-0.92-4.062-1.839-6.092-2.759c-0.636-0.288-1.603-0.596-1.888-1.305c-0.324-0.804,0.135-1.85,0.376-2.616
				c2.72-8.655,5.335-17.341,7.957-26.026c1.484-4.916,2.919-9.846,4.385-14.768c0.156-0.524-0.644-0.725-0.816-0.214
				c-3.016,8.965-6.031,17.929-9.014,26.904c-1.491,4.485-2.941,8.983-4.381,13.485c-0.613,1.918-1.05,4.02,0.802,5.403
				c0.782,0.584,1.729,0.929,2.612,1.329c1.091,0.493,2.181,0.987,3.272,1.48c2.37,1.072,4.739,2.144,7.109,3.216
				c1.752,0.793,3.526,1.521,5.307,2.239c-2.265,0.629-4.564,1.162-6.841,1.728c-2.991,0.743-5.979,1.496-8.976,2.212
				c-0.53,0.127-0.925,0.868-0.571,1.353c5.247,7.178,9.992,14.621,13.859,22.641c1.904,3.948,3.607,7.991,5.097,12.114
				c1.491,4.126,2.868,8.332,3.948,12.585c1.234,4.858,2.115,9.772,2.857,14.725c0.135,0.904,1.699,0.711,1.599-0.206
				C301.563,299.31,300.729,294.864,299.711,290.483z"/>
			<path style="fill:#EBEBEB;" d="M306.634,294.359l-7.355,55.396c0,0,6.086,67.096,14.699,69.597
				c8.613,2.501,54.463-2.07,81.407-9.135c-5.887-36.571-19.606-139.697-19.606-139.697L306.634,294.359z"/>
			<path style="fill:#E0E0E0;" d="M346.056,236.735c-5.818,9.382-11.322,18.964-16.494,28.73c-5.144,9.713-9.896,19.623-14.3,29.706
				c-2.483,5.683-4.778,11.444-7.055,17.214c-0.174,0.441,0.582,0.761,0.765,0.317c4.193-10.143,8.826-20.127,13.692-29.952
				c4.892-9.877,9.98-19.647,15.437-29.213c3.062-5.367,6.216-10.678,9.47-15.926C348.168,236.646,346.654,235.77,346.056,236.735z"
				/>
		</g>
		<path style="fill:#38474F;" d="M327.816,173.881c5.554,17.168-3.616,43.483-7.068,64.437c-2.167,13.153-9.223,42.487-9.223,42.487
			s-9.649-27.361-12.765-44.131c-3.568-19.204-3.568-63.96-3.568-63.96L327.816,173.881z"/>
		<path style="fill:#EBEBEB;" d="M391.5,198.879c15.167,25.778,30.473,80.114,30.473,117.874l-41.216-7.826
			C354.486,229.004,374.399,200.171,391.5,198.879z"/>
		<g>
			<path style="fill:#263238;" d="M318.056,124.767c0.521-10.3-3.823-22.341-3.823-22.341c3.661-1.541,4.385-6.934-0.625-8.323
				c5.108-4.315-16.711-14.487-24.618-2.202l16.368,37.986L318.056,124.767z"/>
			<path style="fill:#263238;" d="M241.538,119.468c0.109,18.79,13.977,33.383,13.977,33.383l-3.688-34.997L241.538,119.468z"/>
			<path style="fill:#AC635B;" d="M279.169,155.598l6.582,11.741l7.567,13.507l3.792,7.162c4.187,7.907,13.804,11.19,21.952,7.493
				l0,0c8.21-3.725,12.059-13.232,8.753-21.62l-17.591-44.628L279.169,155.598z"/>
			<polygon style="fill:#38474F;" points="287.682,175.538 297.174,211.976 304.084,196.262 289.925,174.981 			"/>
			<path style="fill:#263238;" d="M324.579,207.811c-1.212-1.181-2.64-2.196-3.985-3.22c-1.389-1.058-2.801-2.083-4.227-3.091
				c-1.396-0.986-2.791-1.972-4.216-2.917c-0.712-0.472-1.43-0.935-2.151-1.393c-0.361-0.229-0.723-0.455-1.085-0.683
				c-0.259-0.163-0.842-0.418-0.98-0.684c-0.159-0.307-0.625-0.536-0.966-0.407c-1.118,0.422-1.976,1.686-2.749,2.568
				c-0.859,0.98-1.692,1.982-2.511,2.996c-1.599,1.979-3.121,4.021-4.553,6.124c-0.345,0.506,0.484,1.153,0.868,0.661
				c1.55-1.982,3.17-3.907,4.872-5.76c0.827-0.9,1.678-1.776,2.542-2.641c0.387-0.388,0.78-0.771,1.167-1.159
				c-0.02,4.779,0.133,9.569,0.217,14.345c0.09,5.101,0.274,10.196,0.499,15.293c0.065,1.478,0.139,2.955,0.21,4.432
				c-2.326-0.275-4.648-0.576-6.955-0.982c-0.577-0.102-0.821,0.768-0.234,0.892c2.415,0.508,4.827,1.029,7.254,1.475
				c0.406,8.257,0.912,16.507,1.64,24.744c0.505,5.712,1.015,11.431,1.689,17.125c0.043,0.36,0.593,0.381,0.578,0
				c-0.196-5.089-0.5-10.174-0.709-15.263c-0.21-5.092-0.432-10.184-0.676-15.275c-0.175-3.659-0.333-7.319-0.493-10.979
				c1.427,0.232,2.857,0.449,4.289,0.645c0.762,0.105,1.524,0.204,2.287,0.299c0.781,0.098,1.626,0.348,2.357-0.005
				c0.623-0.301,0.464-1.098,0-1.434c-0.563-0.407-1.442-0.306-2.114-0.356c-0.772-0.058-1.543-0.12-2.313-0.188
				c-1.5-0.132-2.999-0.284-4.495-0.455c-0.026-0.003-0.053-0.006-0.079-0.009c-0.263-6.032-0.523-12.064-0.809-18.095
				c-0.134-2.818-0.257-5.637-0.375-8.457c-0.116-2.769-0.15-5.543-0.279-8.311c0.007,0.005,0.02,0.015,0.027,0.019
				c0.36,0.231,0.715,0.469,1.071,0.706c0.712,0.474,1.42,0.955,2.125,1.44c1.409,0.97,2.815,1.947,4.189,2.966
				c1.377,1.021,2.727,2.083,4.065,3.154c1.328,1.063,2.609,2.224,3.994,3.209C324.35,209.699,325.249,208.463,324.579,207.811z"/>
			<polygon style="fill:#38474F;" points="322.103,159.386 307.189,197.531 326.478,209.824 336.438,171.223 			"/>
			<path style="fill:#263238;" d="M284.222,164.931l10.016,17.652c15.624-7.27,19.412-23.953,17.339-33.583
				C303.969,150.62,284.222,164.931,284.222,164.931z"/>
			<path style="fill:#AC635B;" d="M312.964,123.877c2.554-2.543,6.574-3.929,9.868-2.467c2.744,1.218,4.4,4.081,5.28,6.951
				c1.134,3.703,1.258,7.78-0.084,11.412c-1.342,3.632-4.243,6.752-7.924,7.954c-3.681,1.201-8.077,0.273-10.673-2.6
				C304.451,139.614,308.374,128.447,312.964,123.877z"/>
			<path style="fill:#263238;" d="M314.325,137.902c1.185-4.079,4.128-6.283,7.832-7.969c0.549-0.25,1.077,0.607,0.542,0.937
				c-2.772,1.707-4.52,5.512-5.245,8.277c-0.103,0.393-0.561,0.784-0.918,0.932c-0.374,0.155-0.894,0.179-1.269,0.01
				C314.368,139.683,314.061,138.809,314.325,137.902z"/>
			<g>
				<path style="fill:#AC635B;" d="M262.377,166.002c5.609,6.112,13.676,10.34,21.946,9.943c11.465-0.529,20.99-9.703,25.646-20.195
					c2.665-5.98,3.874-12.659,3.603-19.185c-0.522-14.197-7.99-27.744-22.652-32.248c-10.032-3.085-25.489-0.048-34.685,7.736
					c-3.612,3.044-6.266,6.82-7.24,11.259C245.907,137.412,252.891,155.681,262.377,166.002z"/>
				<path style="fill:#263238;" d="M260.378,145.852c0.423,1.702,1.786,2.879,3.046,2.628c1.259-0.251,1.938-1.835,1.515-3.537
					c-0.423-1.703-1.786-2.879-3.046-2.628C260.633,142.566,259.955,144.15,260.378,145.852z"/>
				<path style="fill:#263238;" d="M278.901,140.59c0.423,1.702,1.786,2.879,3.046,2.628c1.26-0.251,1.938-1.835,1.516-3.537
					c-0.423-1.702-1.786-2.879-3.046-2.628C279.158,137.304,278.479,138.887,278.901,140.59z"/>
				<path style="fill:#263238;" d="M267.721,149.608c0.122-4.445,0.475-8.849,0.87-13.273c0.038-0.429,0.686-0.455,0.682-0.007
					c-0.028,3.618-0.094,7.202-0.285,10.818c-0.092,1.749-0.403,3.711,0.169,5.407c0.479,1.418,1.79,2.129,3.12,2.549
					c0.345,0.109,0.461,0.61,0.11,0.799c-1.214,0.655-2.738-0.044-3.505-1.076C267.781,153.345,267.672,151.381,267.721,149.608z"/>
				<path style="fill:#263238;" d="M249.055,133.32c-0.161-2.937,7.675-5.353,9.811-3.308
					C261.644,132.674,249.332,138.372,249.055,133.32z"/>
				<path style="fill:#263238;" d="M277.443,125.677c0.136-3.44,9.391-5.4,11.66-2.787
					C293.044,127.429,277.277,129.896,277.443,125.677z"/>
				<g>
					<path style="fill:#EBEBEB;" d="M284.405,153.76c-0.596-0.546-6.285,3.297-6.391,4.402c-0.067,0.704,2.731,2.219,5.12,0.516
						C285.106,157.273,285.098,154.395,284.405,153.76z"/>
				</g>
			</g>
			<path style="fill:#263238;" d="M288.306,106.446c1.43,12.522,15.481,32.293,20.07,24.862c4.589-7.431,6.958-9.211,6.958-9.211
				C319.941,82.432,289.453,77.739,288.306,106.446z"/>
			<path style="fill:#263238;" d="M288.991,109.44c-14.601-8.424-22.647-5.374-31.229,12.183
				c-2.535,5.187-13.993,13.811-18.351,9.633c-2.867-2.748,0-6.642,0-6.642c-8.836,3.691-11.076-5.395-3.022-6.833
				c-15.564-0.342-13.507-12.539-3.532-12.274c7.686,0.204,12.618-1.068,17.676-7.97c7.526-10.27,27.383-19.281,41.517-4.527
				L288.991,109.44z"/>
		</g>
		<path style="fill:#E0E0E0;" d="M387.775,200.606c-3.822,3.205-7.205,6.902-10.089,10.97c-2.879,4.061-5.39,8.493-7.118,13.17
			c-0.487,1.319-0.926,2.656-1.314,4.007c-0.389,1.352-0.816,2.747-0.964,4.149c-0.119,1.124,1.56,1.22,1.875,0.242
			c0.368-1.141,0.568-2.346,0.888-3.504c0.329-1.194,0.698-2.377,1.105-3.546c0.787-2.265,1.661-4.5,2.689-6.667
			c2.086-4.398,4.752-8.498,7.912-12.201c1.783-2.089,3.716-4.044,5.78-5.857C389.062,200.908,388.3,200.165,387.775,200.606z"/>
		<path style="fill:#E0E0E0;" d="M312.685,327.596c-0.162-1.246-0.918-2.786-2.335-2.691c-3.637,0.243-3.647,8.286-1.496,10.09
			C312.966,338.444,312.964,329.74,312.685,327.596z"/>
		<path style="fill:#E0E0E0;" d="M305.596,313.046c0.902-5.99,2.021-11.937,3.198-17.879c0.674-3.402,1.354-6.81,2.188-10.177
			c0.099-0.401-0.517-0.55-0.623-0.151c-1.576,5.933-3.155,11.84-4.409,17.853c-1.251,5.996-2.348,12.03-3.214,18.094
			c-0.489,3.425-0.951,6.854-1.08,10.315c-0.01,0.281,0.144,0.478,0.351,0.591c0.065,0.746,0.102,1.498,0.182,2.243
			c0.108,1.004,0.315,1.998,0.51,2.988c0.396,2.007,0.809,4.01,1.24,6.01c0.87,4.038,1.787,8.067,2.75,12.084
			c0.543,2.267,1.068,4.539,1.743,6.771c0.318,1.051,1.843,0.597,1.625-0.458c-1.06-5.123-2.448-10.185-3.595-15.291
			c-0.574-2.554-1.121-5.113-1.673-7.672c-0.276-1.278-0.536-2.56-0.832-3.834c-0.243-1.045-0.634-2.049-0.939-3.072
			c0.034-0.061,0.067-0.124,0.081-0.204C304.135,325.222,304.683,319.103,305.596,313.046z"/>
		<path style="fill:#E0E0E0;" d="M374.945,357.626c-0.078-0.197-0.154-0.395-0.226-0.594c-0.134-0.371-0.263-0.746-0.387-1.121
			c-0.234-0.708-0.422-1.432-0.591-2.158c0.067-0.492-0.214-1.005-0.874-1.01c-1.258-0.009-2.572,0.375-3.807,0.596
			c-1.226,0.219-2.451,0.438-3.677,0.656c-2.492,0.445-4.984,0.89-7.476,1.334c-4.174,0.745-8.352,1.478-12.524,2.233
			c-1.608-1.275-3.216-2.551-4.829-3.82c-5.371-4.227-10.662-8.543-15.862-12.979c-2.933-2.502-5.864-5.008-8.752-7.561
			c-0.318-0.281-0.786,0.179-0.47,0.47c5.057,4.633,10.167,9.2,15.324,13.722c4.068,3.567,8.147,7.118,12.303,10.579
			c-0.047,0.009-0.094,0.017-0.142,0.025c-2.854,0.526-5.7,1.092-8.547,1.654c-1.02,0.201-0.591,1.697,0.404,1.542
			c3.395-0.53,6.785-1.092,10.173-1.665c0.485,0.398,0.965,0.802,1.453,1.197c0.321,0.26,0.644,0.516,0.965,0.775
			c-1.052,0.205-2.107,0.397-3.157,0.612c-2.804,0.574-5.596,1.195-8.385,1.836c-0.003-0.003-0.006-0.005-0.009-0.007
			c-0.002-0.011-0.007-0.023-0.01-0.031c-0.029-0.093-0.059-0.186-0.088-0.28c-0.059-0.186-0.118-0.373-0.176-0.559
			c-0.118-0.373-0.217-0.75-0.319-1.127c-0.073-0.273-0.379-0.471-0.658-0.385c-0.292,0.09-0.446,0.363-0.385,0.658
			c0.079,0.384,0.159,0.766,0.221,1.153c0.031,0.194,0.062,0.387,0.093,0.581c0.014,0.088,0.028,0.176,0.042,0.264
			c0.001,0.006,0.002,0.017,0.003,0.025c-0.062,0.134-0.081,0.297-0.064,0.432c0.024,0.189,0.101,0.336,0.229,0.48
			c0.04,0.045,0.081,0.09,0.121,0.136c0.246,0.276,0.631,0.263,0.907,0.081c0.129,0.054,0.272,0.085,0.441,0.053
			c4.359-0.825,8.724-1.624,13.094-2.397c0.546,0.438,1.09,0.879,1.638,1.315c1.507,1.2,2.991,2.457,4.566,3.568
			c0.878,0.619,1.98-0.815,1.154-1.515c-1.561-1.324-3.196-2.571-4.833-3.813c4.751-0.826,9.508-1.615,14.274-2.345
			c1.381-0.212,2.763-0.418,4.145-0.619c0.732-0.106,1.464-0.211,2.197-0.315c0.502-0.071,0.99-0.124,1.461-0.263
			c0.372,0.087,0.806,0.012,0.982-0.38C375.044,358.308,375.091,357.99,374.945,357.626z M370.599,357.574
			c-1.261,0.182-2.521,0.369-3.78,0.559c-2.519,0.382-5.036,0.772-7.548,1.198c-3.161,0.536-6.315,1.108-9.465,1.703
			c-0.438-0.336-0.877-0.671-1.31-1.012c-0.379-0.298-0.756-0.599-1.135-0.898c5.768-0.987,11.531-2.008,17.295-3.014
			c1.39-0.243,2.781-0.486,4.171-0.729c0.695-0.121,1.39-0.243,2.085-0.364c0.466-0.081,0.948-0.144,1.417-0.242
			c0.058,0.521,0.132,1.041,0.233,1.556c0.059,0.301,0.14,0.595,0.221,0.889C372.042,357.298,371.29,357.474,370.599,357.574z"/>
		<path style="fill:#E0E0E0;" d="M337.1,333.702c-0.608-0.368-1.297-0.385-1.981-0.505c-0.736-0.129-1.471-0.262-2.207-0.394
			c-1.432-0.255-2.867-0.489-4.301-0.73c-2.867-0.481-5.737-0.947-8.589-1.508c-0.269-0.053-0.381,0.354-0.109,0.416
			c2.826,0.637,5.63,1.369,8.437,2.087c1.363,0.348,2.725,0.704,4.092,1.038c0.724,0.177,1.448,0.353,2.171,0.531
			c0.7,0.172,1.408,0.479,2.138,0.387C337.42,334.94,337.753,334.098,337.1,333.702z"/>
		<path style="fill:#E0E0E0;" d="M324.665,416.435c-0.433-1.454-1.242-2.84-1.858-4.227c-0.592-1.331-1.173-2.667-1.73-4.014
			c-1.144-2.765-2.193-5.57-3.169-8.399c-1.952-5.656-3.583-11.438-4.846-17.286c-0.712-3.299-1.312-6.618-1.783-9.96
			c-0.072-0.509-0.961-0.399-0.899,0.116c1.434,11.987,4.204,23.766,8.527,35.046c0.606,1.581,1.239,3.152,1.897,4.712
			c0.328,0.779,0.668,1.552,1.014,2.323c0.358,0.798,0.678,1.647,1.168,2.372C323.537,417.932,324.978,417.486,324.665,416.435z"/>
		<path style="fill:#E0E0E0;" d="M260.022,356.713c3.05,0.92,6.08,1.87,9.13,2.79c2.26,0.68,4.53,1.32,6.81,1.92
			c1.86,0.5,3.72,1.05,5.59,1.51c-1.23,1.08-2.47,2.15-3.63,3.29c-0.84,0.82,0.39,1.98,1.26,1.26c1.36-1.13,2.64-2.39,3.9-3.65
			c0.02,0,0.04,0.01,0.05,0.02c0.33,0.03,0.59-0.16,0.7-0.47c0.05-0.13,0.09-0.27,0.13-0.41c0.18-0.18,0.36-0.36,0.55-0.54
			c1.7-1.66,3.37-3.33,5.03-5.02c3.38-3.45,6.58-7.06,9.8-10.65c0.31-0.34-0.18-0.84-0.5-0.5c-3.3,3.51-6.79,6.85-10.26,10.18
			c-1.35,1.29-2.71,2.56-4.08,3.83c0.09-0.5,0.18-0.99,0.27-1.48c0.06-0.35-0.1-0.71-0.45-0.83c-0.05-0.22-0.19-0.4-0.49-0.47
			c-2.3-0.49-4.62-0.86-6.93-1.33c-2.26-0.45-4.52-0.94-6.78-1.45c-3.09-0.69-6.17-1.43-9.24-2.21c-0.08,0.36-0.15,0.73-0.23,1.09
			c3.04,0.84,6.09,1.63,9.15,2.36c2.25,0.53,4.5,1.04,6.76,1.53c2.24,0.48,4.5,1,6.77,1.36c-0.13,0.65-0.26,1.29-0.39,1.94
			c-0.02,0.14-0.05,0.28-0.08,0.42c-2.11-0.63-4.28-1.12-6.4-1.68c-2.29-0.6-4.57-1.16-6.87-1.68c-3.12-0.71-6.26-1.39-9.38-2.09
			L260.022,356.713z"/>
		<path style="fill:#E0E0E0;" d="M268.484,286.713c-2.284-10.153-4.575-20.305-6.864-30.457
			c-2.298-10.191-4.556-20.393-7.028-30.543c-1.388-5.7-2.827-11.388-4.199-17.092c-0.147-0.61-1.064-0.361-0.937,0.246
			c2.137,10.193,4.157,20.407,6.397,30.579c0.89,4.039,1.793,8.075,2.697,12.11c-2.442-6.726-5.141-13.361-8.065-19.887
			c-1.309-2.921-2.672-5.816-4.001-8.728c-0.24-0.526-0.998-0.078-0.775,0.44c2.23,5.176,4.214,10.464,6.183,15.744
			c1.959,5.254,3.9,10.52,5.74,15.817c1.053,3.031,2.084,6.07,3.115,9.108c0.132,0.389,0.429,0.582,0.748,0.64
			c0.401,1.782,0.802,3.565,1.202,5.347c1.285,5.727,2.571,11.454,3.859,17.181C266.839,288.473,268.765,287.962,268.484,286.713z"
			/>
		<g>
			<g>
				<g>
					<g>
						<path style="fill:#EBEBEB;" d="M367.754,243.987l54.219,72.766c0,0-30.142,25.779-55.695,2.962
							c-25.553-22.816-38.616-62.901-38.616-62.901L367.754,243.987z"/>
						<path style="fill:#263238;" d="M367.754,243.987c-16.146,14.165-40.092,12.828-40.092,12.828
							C339.037,248.737,358.919,242.791,367.754,243.987z"/>
					</g>
					<path style="fill:#AC635B;" d="M351.132,226.47l13.249,18.285c0,0-6.836,6.329-21.399,6.329l-5.39-18.485L351.132,226.47z"/>
					<g>
						<g>
							<path style="fill:#9182B5;" d="M306.201,204.549l-19.309-4.602c-1.836-0.438-3.001-2.244-2.643-4.096l0,0
								c0.296-1.53,1.561-2.683,3.111-2.837l18.293-1.819L306.201,204.549z"/>
							<path style="fill:#B7A7D4;" d="M305.338,205.64c15.892,16.492,25.53,25.933,38.577,11.669l-15.019-24.051L305.338,205.64z"/>
							<path style="fill:#263238;" d="M253.105,189.198l19.298-4.423l32.754,14.957c1.48,0.684,2.122,2.439,1.433,3.916
								c-0.709,1.521-2.543,2.142-4.03,1.366l-30.372-16.369l-18.877,1.823c-0.304,0.029-0.587-0.159-0.678-0.451
								C252.522,189.659,252.739,189.282,253.105,189.198z"/>
							<g>
								<path style="fill:#9182B5;" d="M258.411,181.79c3.454,5.703,0.447,13.843,0.447,13.843s-8.607-1.106-12.061-6.81
									c-3.454-5.703-0.447-13.843-0.447-13.843S254.957,176.087,258.411,181.79z"/>
								<path style="fill:#B7A7D4;" d="M256.817,183.298c-0.16,1.955-0.578,3.84-1.057,5.684c-0.781-1.365-1.562-2.729-2.331-4.1
									c-0.061-0.109-0.126-0.216-0.188-0.324c0.018-0.119,0.023-0.245,0.03-0.367c0.012-0.228,0.026-0.455,0.036-0.684
									c0.021-0.471,0.022-0.947,0.032-1.42c0.019-0.906,0.039-1.814,0.11-2.708c0.015-0.186-0.237-0.276-0.273-0.093
									c-0.173,0.884-0.399,1.748-0.625,2.61c-0.089,0.338-0.179,0.677-0.264,1.017c-0.46-0.775-0.928-1.546-1.401-2.314
									c-0.458-0.742-0.913-1.487-1.407-2.206c-0.479-0.698-1.074-1.258-1.582-1.914c-0.213-0.275-0.637-0.018-0.492,0.298
									c0.328,0.715,0.538,1.467,0.903,2.18c0.396,0.774,0.855,1.523,1.3,2.271c0.414,0.696,0.831,1.391,1.255,2.081
									c-0.023-0.004-0.045-0.012-0.068-0.016c-0.499-0.083-0.984-0.089-1.481-0.128c-0.997-0.079-1.998-0.209-2.996-0.288
									c-0.199-0.016-0.158,0.297,0.033,0.329c0.984,0.166,1.977,0.383,2.945,0.748c0.467,0.176,0.921,0.406,1.387,0.589
									c0.248,0.097,0.495,0.173,0.745,0.253c0.151,0.048,0.308,0.105,0.465,0.151c0.133,0.208,0.261,0.42,0.396,0.627
									c0.838,1.284,1.664,2.575,2.49,3.866c-0.18-0.027-0.359-0.057-0.538-0.073c-0.547-0.048-1.091-0.067-1.634-0.073
									c-1.078-0.011-2.13,0.121-3.203,0.136c-0.165,0.002-0.14,0.28,0.029,0.285c1.058,0.026,2.138,0.281,3.2,0.526
									c0.511,0.117,1.021,0.249,1.53,0.387c0.272,0.074,0.546,0.135,0.818,0.205c0.26,0.067,0.526,0.145,0.788,0.183
									c0.66,1.069,1.322,2.149,2.063,3.141c0.341,0.457,0.879,0.132,0.632-0.383c-0.507-1.056-1.119-2.086-1.726-3.109
									c0.034-0.061,0.065-0.125,0.079-0.2c0.415-2.263,0.525-4.597,0.639-6.946C257.479,183.083,256.853,182.853,256.817,183.298z
									"/>
							</g>
							<path style="fill:#38474F;" d="M253.779,186.198l19.404-3.931l32.363,15.784c1.462,0.721,2.059,2.492,1.333,3.951
								c-0.747,1.502-2.597,2.077-4.064,1.263L272.87,186.13l-18.917,1.343c-0.305,0.022-0.583-0.174-0.666-0.468
								C253.185,186.644,253.412,186.273,253.779,186.198z"/>
							<path style="fill:#B7A7D4;" d="M282.489,189.95l12.171-10.42c1.109-0.95,2.597-1.33,4.026-1.03l22.893,7.906
								c2.588,0.894,4.781,2.665,6.2,5.007l16.136,25.896c-2.085,4.33-9.688,6.126-19.282,1.561
								c-10.658-4.073-20.48-24.956-20.48-24.956l-7.188-5.186l-11.275,6.104c-1.235,0.669-2.817,0.382-3.736-0.812
								C280.998,192.777,281.298,190.97,282.489,189.95z"/>
							<path style="fill:#B7A7D4;" d="M354.486,229.004c-5.104,12.126-21.809,9.57-21.809,9.57l-4.28-16.656l15.518-4.61
								L354.486,229.004z"/>
							<path style="fill:#B7A7D4;" d="M302.262,191.578c-5.366,6.346-4.11,12.126,0.685,13.116c2.222,4.296,5.136,5.37,9.106,4.294
								c-4.332,3.747-0.832,7.921,1.867,8.434c2.699,0.513,12.558-3.249,12.558-3.249l-8.946-24.14L302.262,191.578z"/>
							<path style="fill:#9182B5;" d="M303.649,190.133c0.568-0.88,1.222-1.521,2.112-2.074c0.906-0.563,1.848-0.947,2.874-1.233
								c1.986-0.553,3.942-0.937,6.012-0.911c0.362,0.005,0.362,0.62,0,0.641c-1.924,0.108-3.908,0.478-5.651,1.324
								c-0.838,0.407-1.653,0.872-2.472,1.316c-0.87,0.472-1.705,0.896-2.62,1.271C303.69,190.555,303.536,190.308,303.649,190.133z
								"/>
							<path style="fill:#9182B5;" d="M303.293,201.663c0.238-0.261,0.329-0.68,0.534-0.977c0.186-0.27,0.383-0.536,0.599-0.783
								c0.437-0.5,0.945-0.943,1.45-1.373c1.078-0.917,2.252-1.697,3.567-2.229c2.581-1.045,5.424-1.199,8.144-0.656
								c0.389,0.078,0.317,0.669-0.084,0.617c-2.589-0.339-5.183,0.2-7.565,1.23c-1.158,0.5-2.301,1.087-3.322,1.831
								c-0.503,0.367-0.955,0.791-1.405,1.221c-0.235,0.225-0.473,0.445-0.7,0.677c-0.227,0.23-0.609,0.436-0.757,0.715
								C303.561,202.298,303.039,201.941,303.293,201.663z"/>
							<path style="fill:#9182B5;" d="M311.574,206.783c0.172-0.269,0.483-0.466,0.738-0.653c0.291-0.212,0.612-0.383,0.927-0.558
								c0.607-0.338,1.258-0.501,1.932-0.654c1.347-0.305,2.708-0.463,4.083-0.573c0.416-0.033,0.495,0.561,0.087,0.64
								c-1.312,0.255-2.595,0.676-3.833,1.176c-0.64,0.259-1.251,0.515-1.922,0.689c-0.573,0.149-1.239,0.422-1.835,0.366
								C311.53,207.197,311.47,206.945,311.574,206.783z"/>
							<path style="fill:#9182B5;" d="M322.334,215.587c1.289-0.684,2.818-0.269,3.903,0.618c1.34,1.095,1.992,2.811,3.344,3.91
								c1.107,0.899,2.486,1.462,3.905,1.59c0.691,0.062,1.382,0.015,2.059-0.136c0.738-0.164,1.545-0.692,2.302-0.48
								c0.541,0.151,0.72,0.755,0.475,1.219c-0.369,0.699-1.361,0.848-2.075,0.949c-0.721,0.103-1.436,0.129-2.161,0.063
								c-1.459-0.131-2.881-0.522-4.162-1.247c-1.367-0.773-2.35-1.882-3.223-3.169c-0.799-1.179-2.211-3.278-3.94-2.548
								C322.25,216.573,321.821,215.859,322.334,215.587z"/>
						</g>
					</g>
				</g>
				<path style="fill:#E0E0E0;" d="M413.091,307.243c-3.172-3.893-6.194-7.925-9.215-11.937c-1.764-2.344-3.521-4.693-5.269-7.049
					c0.304,0.116,0.609,0.227,0.911,0.348c1.298,0.519,2.593,1.037,3.87,1.605c2.549,1.133,5.066,2.377,7.426,3.867
					c0.442,0.279,0.818-0.409,0.397-0.7c-2.33-1.616-4.679-3.189-7.167-4.552c-1.218-0.668-2.464-1.307-3.736-1.865
					c-0.626-0.275-1.259-0.534-1.894-0.79c-0.534-0.215-1.163-0.571-1.759-0.561c-0.595-0.809-1.197-1.614-1.788-2.427
					c-5.887-8.088-11.504-16.379-16.826-24.85c-1.495-2.379-2.966-4.773-4.413-7.181c-0.714-1.188-1.421-2.379-2.123-3.574
					c-0.729-1.242-1.345-2.663-2.415-3.641c-0.563-0.515-1.437-0.016-1.275,0.732c0.27,1.248,1.026,2.302,1.667,3.395
					c0.642,1.096,1.289,2.189,1.941,3.279c1.284,2.147,2.587,4.282,3.909,6.406c2.665,4.28,5.406,8.513,8.222,12.695
					c5.635,8.368,11.592,16.517,17.923,24.372c3.569,4.429,7.361,8.654,11.127,12.913
					C412.901,308.065,413.366,307.58,413.091,307.243z"/>
				<path style="fill:#E0E0E0;" d="M383.977,328.959c-5.643-0.655-10.898-2.757-15.466-6.13c-4.632-3.421-8.41-7.867-11.906-12.404
					c-6.024-7.82-11.478-16.121-16.299-24.746c1.258-0.26,2.507-0.693,3.725-1.073c1.322-0.412,2.636-0.849,3.942-1.31
					c2.726-0.964,5.412-2.039,8.053-3.213c5.23-2.325,10.242-5.118,14.996-8.303c2.653-1.777,5.227-3.675,7.739-5.646
					c0.542-0.425-0.186-1.393-0.741-0.973c-8.903,6.729-19.045,12.032-29.522,15.845c-1.507,0.548-3.025,1.064-4.554,1.545
					c-1.52,0.479-3.11,0.822-4.599,1.383c-0.493-0.902-0.987-1.802-1.465-2.711c-3.04-5.77-5.829-11.701-8.212-17.773
					c-0.126-0.321-0.589-0.076-0.475,0.239c4.034,11.121,8.936,21.876,15.012,32.036c3.056,5.11,6.406,10.034,9.99,14.788
					c3.548,4.707,7.329,9.274,11.943,12.981c4.939,3.968,11.28,7.203,17.771,6.822C384.772,330.266,384.861,329.062,383.977,328.959
					z"/>
				<path style="fill:#E0E0E0;" d="M343.336,271.021c-0.136-0.725-0.382-1.427-0.692-2.095c-0.71-1.527-1.876-2.819-3.291-3.723
					c-0.39-0.249-0.819-0.135-1.104,0.144c-0.244,0.019-0.48,0.163-0.578,0.466c-0.861,2.662-0.065,5.732,1.919,7.693
					c0.554,0.548,1.235,1.103,2.04,1.169c0.89,0.073,1.608-0.558,1.791-1.409C343.577,272.539,343.472,271.743,343.336,271.021z"/>
			</g>
			<g>
				<path style="fill:#EBEBEB;" d="M233.377,353.01c-8.051,8.437-59.876-16.873-74.338-68.698c0,0,10.456-17.27,33.656-21.063
					c0,0,43.307,52.399,42.991,53.604C235.37,318.058,233.377,353.01,233.377,353.01z"/>
				<path style="fill:#263238;" d="M192.695,263.249c-3.398,14.651-21.131,23.16-33.656,21.063
					C159.039,284.312,169.774,266.252,192.695,263.249z"/>
				<g>
					<path style="fill:#AC635B;" d="M192.695,263.249c-2.659,4.582-10.414,16.233-20.968,17.001
						c-0.119-2.739-0.199-5.642-0.223-8.657c-0.079-7.516,0.138-15.666,0.907-23.455l15.792-1.692l4.165,15.589L192.695,263.249z"/>
					<g>
						<path style="fill:#9182B5;" d="M210.504,228.247l19.186-5.093c1.824-0.484,2.943-2.32,2.537-4.163l0,0
							c-0.335-1.521-1.629-2.643-3.182-2.757l-18.333-1.351L210.504,228.247z"/>
						<path style="fill:#B7A7D4;" d="M211.394,229.316c-15.466,16.892-24.86,26.576-38.267,12.649l14.4-24.426L211.394,229.316z"/>
						<g>
							<path style="fill:none;stroke:#DBDBDB;stroke-linecap:round;stroke-linejoin:round;stroke-miterlimit:10;" d="
								M218.831,251.737L218.831,251.737c-3.325-1.082-5.144-4.656-4.062-7.981l15.735-48.348l12.043,3.919l-15.735,48.348
								C225.73,251.001,222.157,252.82,218.831,251.737z"/>
							<path style="fill:#38474F;" d="M219.706,249.051L219.706,249.051c-1.898-0.618-2.935-2.657-2.318-4.554l2.827-8.685
								l9.36-5.409l-5.315,16.331C223.642,248.631,221.603,249.669,219.706,249.051z"/>
							
								<line style="fill:none;stroke:#DBDBDB;stroke-linecap:round;stroke-linejoin:round;stroke-miterlimit:10;" x1="228.215" y1="194.663" x2="244.837" y2="200.073"/>
						</g>
						<path style="fill:#B7A7D4;" d="M233.836,213.048l-12.433-10.106c-1.133-0.921-2.63-1.263-4.051-0.927l-22.684,8.487
							c-2.564,0.96-4.712,2.786-6.07,5.163l-15.47,26.299c2.195,4.275,9.841,5.877,19.316,1.069
							c10.551-4.343,19.837-25.47,19.837-25.47l7.054-5.367l11.427,5.814c1.252,0.637,2.826,0.31,3.714-0.907
							C235.399,215.836,235.053,214.037,233.836,213.048z"/>
						<path style="fill:#B7A7D4;" d="M214.111,215.18c5.526,6.207,4.418,12.017-0.35,13.129c-2.112,4.351-4.997,5.5-8.994,4.525
							c4.426,3.635,1.034,7.897-1.651,8.479c-2.685,0.582-12.637-2.928-12.637-2.928l8.328-24.36L214.111,215.18z"/>
						<path style="fill:#9182B5;" d="M212.687,213.771c-0.59-0.865-1.26-1.489-2.164-2.019c-0.921-0.539-1.872-0.9-2.904-1.159
							c-1.999-0.502-3.964-0.836-6.033-0.757c-0.362,0.014-0.346,0.629,0.017,0.64c1.926,0.059,3.919,0.378,5.683,1.18
							c0.848,0.385,1.675,0.83,2.505,1.253c0.881,0.449,1.727,0.852,2.652,1.203C212.657,214.194,212.805,213.943,212.687,213.771z"
							/>
						<path style="fill:#9182B5;" d="M213.338,225.288c-0.245-0.255-0.346-0.671-0.559-0.963c-0.193-0.265-0.397-0.526-0.618-0.768
							c-0.449-0.489-0.968-0.919-1.484-1.335c-1.101-0.889-2.295-1.639-3.623-2.137c-2.606-0.979-5.453-1.061-8.158-0.448
							c-0.387,0.088-0.3,0.677,0.099,0.615c2.579-0.405,5.186,0.068,7.594,1.036c1.17,0.471,2.328,1.028,3.367,1.746
							c0.512,0.354,0.975,0.767,1.436,1.185c0.24,0.218,0.484,0.433,0.717,0.659c0.233,0.224,0.62,0.42,0.775,0.695
							C213.085,225.93,213.598,225.559,213.338,225.288z"/>
						<path style="fill:#9182B5;" d="M205.19,230.618c-0.179-0.264-0.495-0.454-0.755-0.634c-0.296-0.205-0.622-0.367-0.941-0.534
							c-0.615-0.322-1.27-0.469-1.948-0.604c-1.354-0.271-2.719-0.394-4.096-0.469c-0.416-0.023-0.48,0.574-0.07,0.642
							c1.318,0.221,2.612,0.609,3.862,1.078c0.647,0.242,1.264,0.483,1.939,0.64c0.576,0.134,1.249,0.391,1.843,0.319
							C205.244,231.03,205.298,230.777,205.19,230.618z"/>
						<path style="fill:#9182B5;" d="M194.658,239.693c-1.306-0.651-2.823-0.197-3.886,0.718c-1.311,1.129-1.919,2.861-3.243,3.994
							c-1.083,0.926-2.448,1.525-3.864,1.689c-0.689,0.08-1.381,0.05-2.062-0.083c-0.742-0.145-1.562-0.653-2.313-0.421
							c-0.536,0.165-0.701,0.773-0.443,1.231c0.387,0.689,1.382,0.813,2.098,0.896c0.723,0.084,1.439,0.092,2.162,0.008
							c1.455-0.169,2.867-0.596,4.129-1.352c1.347-0.807,2.301-1.941,3.141-3.25c0.769-1.199,2.127-3.333,3.874-2.648
							C194.767,240.677,195.177,239.951,194.658,239.693z"/>
						<path style="fill:#B7A7D4;" d="M169.665,263.244c12.531,4.008,21.835-4.446,21.835-4.446l-3.3-12.348l-15.072-4.485
							L169.665,263.244z"/>
					</g>
				</g>
				<path style="fill:#E0E0E0;" d="M234.596,322.228c-1.135-5.607-2.896-11.097-5.44-16.231c-2.546-5.139-5.928-9.885-9.798-14.109
					c-1.078-1.177-2.201-2.314-3.366-3.406c-0.351-0.329-0.705-0.658-1.063-0.983c0.34,0.078,0.683,0.139,1.019,0.231
					c1.457,0.398,2.871,0.929,4.226,1.596c2.697,1.326,5.368,3.035,7.507,5.155c0.539,0.534,1.278-0.252,0.818-0.818
					c-2.077-2.551-4.475-4.645-7.439-6.1c-1.446-0.71-2.961-1.296-4.511-1.732c-0.767-0.215-1.545-0.391-2.33-0.528
					c-0.811-0.142-1.699-0.337-2.523-0.26c-0.434,0.041-0.727,0.336-0.846,0.68c-0.016,0.039-0.028,0.078-0.04,0.119
					c-0.006,0.027-0.011,0.053-0.014,0.081c-0.05,0.265-0.001,0.546,0.229,0.77c1,0.973,2.094,1.843,3.122,2.788
					c1.029,0.945,2.026,1.924,2.99,2.936c1.912,2.006,3.699,4.136,5.327,6.379c3.284,4.524,6.136,9.48,8.254,14.657
					c1.198,2.927,2.202,5.946,2.918,9.027C233.782,323.107,234.722,322.85,234.596,322.228z"/>
				<path style="fill:#E0E0E0;" d="M202.484,280.17c-6.237,8.933-15.305,16.052-25.281,20.371c-1.383,0.599-2.793,1.136-4.221,1.617
					c-1.474,0.497-3.03,0.808-4.481,1.358c-0.446,0.169-0.755,0.535-0.69,1.034c0.054,0.419,0.462,0.884,0.93,0.825
					c1.425-0.18,2.828-0.666,4.19-1.112c1.38-0.451,2.739-0.959,4.082-1.509c2.586-1.06,5.103-2.299,7.508-3.723
					c4.879-2.888,9.326-6.542,13.094-10.778c2.111-2.372,4.021-4.921,5.732-7.594C203.695,280.117,202.845,279.654,202.484,280.17z"
					/>
				<path style="fill:#E0E0E0;" d="M169.851,290.909c-0.438-0.384-0.974-0.741-1.554-0.684c-0.524,0.051-0.963,0.436-1.249,0.878
					c-0.63,0.975-0.659,2.248-0.319,3.358c0.34,1.11,1.012,2.086,1.722,3.005c0.409,0.529,0.848,1.058,1.431,1.385
					c2.09,1.171,3.145-1.423,2.901-3.132C172.535,293.983,171.128,292.029,169.851,290.909z"/>
			</g>
		</g>
	</g>
	<g>
		<g>
			<path style="fill:#FFFFFF;stroke:#DBDBDB;stroke-miterlimit:10;" d="M182.696,415.855L182.696,415.855
				c-3.497,0-6.332-2.835-6.332-6.332v-41.096h12.664v41.096C189.028,413.021,186.193,415.855,182.696,415.855z"/>
			<path style="fill:#FFFFFF;stroke:#DBDBDB;stroke-miterlimit:10;" d="M205.334,415.855L205.334,415.855
				c-3.497,0-6.332-2.835-6.332-6.332v-41.096h12.664v41.096C211.666,413.021,208.831,415.855,205.334,415.855z"/>
			<rect x="164.945" y="381.403" style="fill:#FFFFFF;stroke:#DBDBDB;stroke-miterlimit:10;" width="5.996" height="44.788"/>
			<rect x="240.223" y="381.403" style="fill:#FFFFFF;stroke:#DBDBDB;stroke-miterlimit:10;" width="5.996" height="44.788"/>
			<g>
				<g>
					<g>
						<g>
							<path style="fill:#9182B5;" d="M205.637,401.999l-1.454,0.133c-3.032-33.168,4.129-41.178,4.435-41.503l1.063,1.001
								C209.614,361.704,202.685,369.7,205.637,401.999z"/>
						</g>
					</g>
					<g>
						<path style="fill:#9182B5;" d="M206.654,364.175c6.158-20.902,11.977-29.862,34.664-29.439
							C237.831,344.634,233.983,371.07,206.654,364.175z"/>
					</g>
					<path style="fill:#B7A7D4;" d="M232.192,341.106c2.431-1.779,5.026-3.288,7.528-4.959c0.134-0.089-0.003-0.321-0.146-0.245
						c-2.35,1.241-4.54,2.79-6.745,4.269c-1.126,0.755-2.236,1.534-3.368,2.279c-1.033,0.68-2.081,1.343-3.088,2.062
						c0.054-0.172,0.108-0.343,0.169-0.504c0.307-0.818,0.617-1.636,0.953-2.443c0.694-1.666,1.481-3.293,2.35-4.875
						c0.149-0.272-0.23-0.541-0.408-0.273c-1.012,1.527-1.93,3.109-2.745,4.75c-0.395,0.796-0.777,1.599-1.111,2.422
						c-0.263,0.646-0.636,1.377-0.788,2.094c-2.375,1.82-4.616,3.792-6.735,5.892c0.018-0.417,0.023-0.836,0.045-1.24
						c0.049-0.896,0.104-1.792,0.166-2.688c0.123-1.789,0.25-3.581,0.45-5.362c0.028-0.252-0.347-0.271-0.387-0.028
						c-0.296,1.777-0.612,3.549-0.876,5.331c-0.132,0.89-0.256,1.781-0.372,2.673c-0.106,0.819-0.277,1.691-0.24,2.52
						c-0.866,0.905-1.71,1.833-2.525,2.791c-0.585,0.688-1.164,1.381-1.746,2.072c-0.027-0.8-0.064-1.599-0.135-2.398
						c-0.093-1.05-0.238-2.095-0.305-3.147c-0.014-0.22-0.376-0.196-0.384,0.021c-0.037,1.04-0.151,2.076-0.214,3.114
						c-0.063,1.042-0.077,2.081-0.072,3.125c0.001,0.159,0.056,0.308,0.153,0.42c-1.065,1.275-2.122,2.555-3.163,3.849
						c-0.148,0.184,0.146,0.395,0.296,0.216c1.114-1.333,2.273-2.639,3.479-3.898c0.702,0.284,1.53,0.401,2.253,0.559
						c0.797,0.175,1.597,0.324,2.403,0.453c0.822,0.132,1.651,0.24,2.481,0.301c0.887,0.065,1.801,0.012,2.681,0.113
						c0.091,0.01,0.102-0.132,0.01-0.142c-0.855-0.099-1.728-0.384-2.567-0.581c-0.808-0.189-1.621-0.361-2.432-0.538
						c-0.815-0.178-1.629-0.363-2.441-0.551c-0.407-0.094-0.813-0.191-1.219-0.293c-0.132-0.033-0.264-0.07-0.397-0.107
						c0.422-0.427,0.843-0.855,1.28-1.265c0.926-0.87,1.861-1.73,2.799-2.587c2.303,0.385,4.667,0.53,6.994,0.675
						c2.363,0.147,4.709,0.097,7.074,0.066c0.308-0.004,0.352-0.469,0.035-0.484c-2.346-0.112-4.696-0.377-7.035-0.592
						c-1.985-0.182-3.955-0.465-5.933-0.7c0.655-0.595,1.309-1.19,1.964-1.785c1.597-1.451,3.209-2.887,4.826-4.317
						c0.819,0.243,1.725,0.336,2.56,0.458c0.887,0.13,1.777,0.24,2.669,0.332c1.849,0.189,3.707,0.233,5.564,0.234
						c0.249,0,0.279-0.358,0.028-0.387c-1.819-0.211-3.626-0.509-5.432-0.803c-0.889-0.145-1.775-0.304-2.659-0.475
						c-0.533-0.103-1.076-0.24-1.62-0.352C228.104,344.437,230.054,342.671,232.192,341.106z"/>
				</g>
				<g>
					<g>
						
							<rect x="182.331" y="362.045" transform="matrix(0.9971 -0.0761 0.0761 0.9971 -28.5168 15.0402)" style="fill:#9182B5;" width="1.454" height="39.189"/>
					</g>
					<path style="fill:#9182B5;" d="M182.739,367.904c2.229-9.486,9.01-12.625,6.274-24.441
						c-2.735-11.816-15.887-19.373-15.887-19.373c-0.091,7.977-4.258,17.26-3.983,25.275
						C169.525,360.538,182.739,367.904,182.739,367.904z"/>
					<path style="fill:#B7A7D4;" d="M188.182,347.133c-0.891,1.309-1.807,2.601-2.715,3.898c-0.438,0.626-0.895,1.24-1.312,1.881
						c-0.155,0.238-0.309,0.475-0.464,0.713c-0.022-1.347-0.07-2.69-0.155-4.019c-0.098-1.544-0.292-3.089-0.558-4.625
						c0.02-0.064,0.024-0.133,0.014-0.205c0.16-0.338,0.184-0.726,0.24-1.093c0.058-0.38,0.121-0.759,0.178-1.139
						c0.109-0.728,0.196-1.46,0.288-2.19c0.193-1.533,0.372-3.073,0.696-4.585c0.04-0.186-0.238-0.286-0.285-0.095
						c-0.382,1.515-0.866,3.004-1.286,4.508c-0.168,0.6-0.328,1.206-0.471,1.814c-0.653-2.661-1.552-5.262-2.704-7.724
						c-1.271-2.717-2.887-5.165-4.607-7.611c-0.1-0.143-0.351,0.022-0.258,0.171c1.36,2.184,2.442,4.6,3.418,6.977
						c0.975,2.373,1.844,4.797,2.531,7.269c0.206,0.741,0.395,1.488,0.575,2.237c-0.237-0.151-0.472-0.304-0.713-0.448
						c-0.853-0.511-1.705-1.022-2.57-1.513c-1.703-0.968-3.445-1.872-5.098-2.925c-0.148-0.094-0.296,0.131-0.15,0.228
						c1.632,1.083,3.164,2.309,4.739,3.472c0.775,0.572,1.563,1.128,2.35,1.682c0.394,0.277,0.795,0.543,1.197,0.808
						c0.201,0.133,0.402,0.265,0.602,0.398c0.011,0.007,0.02,0.012,0.031,0.018c0.619,2.95,1.01,5.951,1.09,8.958
						c-3.438-1.491-7.005-2.655-10.434-4.167c-0.135-0.06-0.201,0.154-0.072,0.216c3.568,1.694,6.944,3.756,10.518,5.442
						c-0.003,0.333-0.005,0.667-0.016,1c-0.064,1.906-0.294,3.805-0.577,5.694c-0.364-0.211-0.797-0.358-1.156-0.526
						c-0.52-0.243-1.042-0.482-1.564-0.72c-1.072-0.487-2.148-0.97-3.202-1.498c-0.149-0.075-0.298,0.135-0.146,0.223
						c0.999,0.578,1.974,1.198,2.951,1.812c0.489,0.307,0.977,0.615,1.468,0.917c0.246,0.151,0.492,0.302,0.737,0.454
						c0.238,0.147,0.477,0.337,0.751,0.405c-0.103,0.642-0.21,1.283-0.318,1.923c-0.076,0.446,0.663,0.59,0.779,0.152
						c0.189-0.711,0.349-1.43,0.488-2.154c0.484-0.608,0.806-1.386,1.12-2.093c0.317-0.714,0.634-1.421,1.008-2.107
						c0.138-0.253-0.223-0.502-0.38-0.249c-0.419,0.676-0.886,1.313-1.359,1.954c0.201-1.661,0.299-3.339,0.323-5.018
						c0.031-0.019,0.063-0.032,0.093-0.059c0.305-0.269,0.493-0.645,0.7-0.99c0.211-0.351,0.416-0.706,0.624-1.059
						c0.389-0.661,0.736-1.345,1.103-2.018c0.759-1.395,1.51-2.794,2.287-4.179C188.638,347.13,188.328,346.919,188.182,347.133z"/>
				</g>
				
					<line style="fill:none;stroke:#DBDBDB;stroke-linecap:round;stroke-linejoin:round;stroke-miterlimit:10;" x1="173.956" y1="368.427" x2="191.436" y2="368.427"/>
				
					<line style="fill:none;stroke:#DBDBDB;stroke-linecap:round;stroke-linejoin:round;stroke-miterlimit:10;" x1="196.594" y1="368.427" x2="214.074" y2="368.427"/>
			</g>
			<path style="fill:#38474F;" d="M182.696,413.03L182.696,413.03c-1.996,0-3.614-1.618-3.614-3.613v-35.43h7.227v35.43
				C186.309,411.413,184.692,413.03,182.696,413.03z"/>
			<path style="fill:#38474F;" d="M205.334,413.03L205.334,413.03c-1.996,0-3.613-1.618-3.613-3.613v-9.134h7.227v9.134
				C208.947,411.413,207.33,413.03,205.334,413.03z"/>
			<g>
				<rect x="160.853" y="381.403" style="fill:#FFFFFF;stroke:#DBDBDB;stroke-miterlimit:10;" width="88.394" height="5.915"/>
				<rect x="160.853" y="413.855" style="fill:#FFFFFF;stroke:#DBDBDB;stroke-miterlimit:10;" width="88.394" height="12.335"/>
			</g>
		</g>
	</g>
	<g>
		<g>
			<path style="fill:#263238;" d="M434.886,347.332c-4.049-7.156-10.812-11.67-16.766-17.063c-6.2-5.616-12.68-14.459-8.354-23.113
				c0.476-0.952-0.82-1.616-1.416-0.784c-4.544,6.342-2.638,15.232,1.554,21.239c4.848,6.949,12.134,11.566,17.537,18.009
				c2.325,2.773,4.238,6.024,4.983,9.593c0.834,3.994-0.362,7.913-2.488,11.299c-4.643,7.396-12.823,11.539-19.094,17.331
				c-6.428,5.936-12.025,15.528-7.385,24.147c1.019,1.894,3.759,0.529,3.345-1.419c-1.665-7.829,3.01-14.933,8.618-19.877
				c6.345-5.594,13.782-9.794,18.613-16.946C438.725,362.802,438.996,354.595,434.886,347.332z"/>
			<path style="fill:#DBDBDB;" d="M437.705,311.945c-1.099-0.577-2.484-0.497-3.704-0.601c-1.162-0.1-2.323-0.199-3.485-0.299
				c-2.517-0.216-5.034-0.431-7.551-0.647c-5.045-0.432-10.087-0.795-15.145-1.052c-1.177-0.06-1.555,1.699-0.322,1.857
				c5.104,0.65,10.211,1.185,15.335,1.657c2.514,0.231,5.029,0.463,7.543,0.694l3.772,0.347c1.179,0.108,2.333,0.359,3.477-0.002
				C438.55,313.604,438.478,312.35,437.705,311.945z"/>
			<path style="fill:#DBDBDB;" d="M434.829,318.507c-1.007-0.672-1.956-0.584-3.149-0.653c-1.071-0.061-2.141-0.13-3.212-0.195
				c-2.411-0.148-4.82-0.31-7.227-0.501c-4.733-0.376-9.458-0.887-14.202-1.099c-1.218-0.054-1.597,1.656-0.332,1.917
				c4.725,0.974,9.534,1.462,14.336,1.891c2.314,0.206,4.63,0.395,6.948,0.552c1.249,0.085,2.499,0.153,3.749,0.217
				c1.127,0.059,2.003,0.189,3.024-0.354C435.371,319.958,435.386,318.879,434.829,318.507z"/>
			<path style="fill:#DBDBDB;" d="M429.566,326.949c-0.191-0.421-0.565-0.871-1.073-0.901c-5.388-0.322-10.77-0.728-16.158-1.044
				c-1.194-0.07-1.563,1.649-0.325,1.877c2.651,0.489,5.286,0.928,7.966,1.231c2.674,0.303,5.358,0.501,8.042,0.679
				c0.458,0.03,1.04-0.05,1.313-0.487C429.608,327.861,429.801,327.467,429.566,326.949z"/>
			<path style="fill:#DBDBDB;" d="M428.745,341.337c-1.691-0.61-3.897-0.265-5.683-0.271c-1.835-0.006-3.67,0.001-5.504,0.039
				c-3.813,0.079-7.623,0.269-11.427,0.531c-1.228,0.085-1.06,1.961,0.161,1.898c3.745-0.193,7.492-0.263,11.241-0.228
				c1.84,0.017,3.68,0.054,5.519,0.126c1.774,0.069,3.88,0.572,5.601,0.123C429.641,343.298,429.702,341.682,428.745,341.337z"/>
			<path style="fill:#DBDBDB;" d="M434.263,350.778c-1.298-0.437-2.516-0.23-3.862-0.24c-1.49-0.011-2.982-0.066-4.472-0.087
				c-2.875-0.04-5.751-0.05-8.627-0.029c-5.862,0.042-11.708,0.247-17.558,0.624c-1.38,0.089-1.179,2.155,0.18,2.122
				c5.755-0.138,11.518-0.214,17.275-0.199c2.772,0.007,5.544,0.042,8.315,0.105c1.491,0.034,2.986,0.056,4.476,0.127
				c1.43,0.068,2.766,0.401,4.17,0.041C435.245,352.964,435.34,351.141,434.263,350.778z"/>
			<path style="fill:#DBDBDB;" d="M435.562,359.047c-2.847-0.344-5.93,0.086-8.79,0.246c-2.998,0.167-6.002,0.288-8.996,0.514
				c-5.99,0.452-11.982,0.812-17.978,1.194c-1.33,0.085-1.13,2.058,0.173,2.041c5.915-0.078,11.826-0.222,17.741-0.193
				c2.9,0.014,5.804-0.101,8.703-0.162c2.92-0.062,6.142,0.177,9.007-0.392C437.102,361.96,437.565,359.289,435.562,359.047z"/>
			<path style="fill:#DBDBDB;" d="M429.042,370.575c-0.246-0.685-0.861-0.962-1.534-0.984c-1.717-0.056-3.483,0.294-5.194,0.437
				c-1.73,0.144-3.464,0.253-5.199,0.33c-3.462,0.154-6.934,0.187-10.399,0.123c-1.223-0.022-1.321,2.048-0.093,2.151
				c3.569,0.3,7.141,0.448,10.723,0.441c1.74-0.003,3.479-0.04,5.218-0.108c1.852-0.072,3.765-0.059,5.576-0.477
				c0.493-0.114,0.898-0.675,0.968-1.152C429.148,371.064,429.135,370.835,429.042,370.575z"/>
			<path style="fill:#DBDBDB;" d="M430.216,387.418c-0.879-0.245-1.885-0.04-2.786,0.027c-0.81,0.06-1.62,0.12-2.43,0.18
				c-1.755,0.13-3.51,0.261-5.265,0.391c-3.51,0.261-7.016,0.55-10.523,0.858c-1.74,0.153-1.505,2.79,0.229,2.694
				c3.516-0.194,7.028-0.406,10.541-0.647c1.756-0.121,3.512-0.241,5.267-0.362c0.81-0.056,1.621-0.111,2.431-0.167
				c0.913-0.063,1.916-0.007,2.76-0.379C431.721,389.449,431.516,387.781,430.216,387.418z"/>
			<path style="fill:#DBDBDB;" d="M439.903,397.213c-1.351-0.308-2.808-0.101-4.191-0.082c-1.513,0.021-3.026,0.056-4.539,0.098
				c-2.916,0.081-5.833,0.14-8.747,0.256c-5.915,0.236-11.897,0.281-17.783,0.938c-1.616,0.18-1.333,2.396,0.208,2.449
				c5.928,0.207,11.903-0.199,17.828-0.412c2.913-0.105,5.824-0.267,8.735-0.406c1.51-0.073,3.018-0.152,4.526-0.246
				c1.386-0.086,2.82-0.014,4.152-0.426C441.226,399.033,440.938,397.449,439.903,397.213z"/>
			<g>
				<path style="fill:#B7A7D4;" d="M436.428,387.716c-7.329-6.733-17.3-9.369-25.214-15.217c-6.184-4.57-12.132-12.416-8.923-20.46
					c3.421-8.578,12.817-12.579,20.158-17.102c4.492-2.767,8.652-6.103,11.585-10.547c3.015-4.567,4.449-9.606,4.778-15.042
					c0.079-1.31-1.884-1.718-2.058-0.357c-0.613,4.797-2.762,9.475-5.714,13.293c-2.874,3.717-6.695,6.351-10.725,8.682
					c-7.957,4.603-16.738,8.362-21.569,16.68c-4.605,7.929-2.255,17.159,3.573,23.727c6.514,7.341,15.652,10.691,23.961,15.478
					c4.259,2.454,8.145,5.466,10.864,9.614c2.595,3.96,3.239,8.18,2.88,12.833c-0.176,2.289,2.677,3.237,3.823,1.182
					C448.181,402.715,442.128,392.953,436.428,387.716z"/>
			</g>
		</g>
		<g>
			<rect x="388.368" y="416.392" style="fill:#263238;" width="64.257" height="9.498"/>
			<rect x="388.368" y="292.663" style="fill:#263238;" width="64.257" height="9.498"/>
			<rect x="395.559" y="416.392" style="fill:#38474F;" width="15.281" height="9.498"/>
			<rect x="395.559" y="292.663" style="fill:#38474F;" width="15.281" height="9.498"/>
			<line style="fill:none;stroke:#263238;stroke-miterlimit:10;" x1="392.325" y1="299.704" x2="392.325" y2="418.457"/>
			<line style="fill:none;stroke:#263238;stroke-miterlimit:10;" x1="449.441" y1="299.704" x2="449.441" y2="418.457"/>
		</g>
		<path style="fill:#B7A7D4;" d="M439.952,329.553c-3.635,0-3.637,5.642,0,5.642C443.587,335.195,443.589,329.553,439.952,329.553z"
			/>
		<path style="fill:#B7A7D4;" d="M399.783,308.569c-3.635,0-3.637,5.642,0,5.642C403.418,314.211,403.42,308.569,399.783,308.569z"
			/>
		<path style="fill:#B7A7D4;" d="M428.161,406.694c-3.635,0-3.637,5.642,0,5.642C431.796,412.336,431.798,406.694,428.161,406.694z"
			/>
		<path style="fill:#B7A7D4;" d="M404.779,331.446c-1.454,0-1.455,2.257,0,2.257C406.233,333.703,406.234,331.446,404.779,331.446z"
			/>
		<path style="fill:#38474F;" d="M444.349,309.462c-2.485,0-2.486,3.856,0,3.856C446.833,313.318,446.834,309.462,444.349,309.462z"
			/>
		<path style="fill:#B7A7D4;" d="M440.751,374.813c-1.454,0-1.455,2.257,0,2.257C442.206,377.069,442.206,374.813,440.751,374.813z"
			/>
		<path style="fill:#DBDBDB;" d="M400.582,382.207c-1.454,0-1.455,2.257,0,2.257C402.036,384.464,402.037,382.207,400.582,382.207z"
			/>
		<path style="fill:#DBDBDB;" d="M443.749,355.028c-1.454,0-1.455,2.257,0,2.257C445.203,357.284,445.204,355.028,443.749,355.028z"
			/>
		<path style="fill:#38474F;" d="M415.171,404.19c-1.454,0-1.455,2.257,0,2.257C416.625,406.447,416.626,404.19,415.171,404.19z"/>
		<path style="fill:#DBDBDB;" d="M396.385,341.039c-1.454,0-1.455,2.257,0,2.257C397.84,343.295,397.84,341.039,396.385,341.039z"/>
	</g>
	<line style="fill:none;stroke:#263238;stroke-miterlimit:10;" x1="39.053" y1="426.351" x2="460.947" y2="425.77"/>
	<g>
		<g>
			<path style="fill:#DBDBDB;" d="M91.985,318.753h3v14.595h-3c-17.267,0-31.314,14.641-31.314,32.637
				c0,17.996,14.047,32.637,31.314,32.637c10.297,0,19.939-5.282,25.793-14.13l1.704-2.574l11.524,8.288l-1.703,2.575
				c-8.469,12.797-22.419,20.437-37.318,20.437c-24.986,0-45.313-21.189-45.313-47.232
				C46.672,339.941,66.999,318.753,91.985,318.753z"/>
			<path style="fill:#EBEBEB;" d="M95.985,320.604h3v14h-3c-17.267,0-31.313,14.044-31.313,31.307s14.047,31.307,31.313,31.307
				c10.297,0,19.939-5.067,25.793-13.554l1.704-2.469l11.524,7.95l-1.703,2.47c-8.469,12.275-22.419,19.604-37.318,19.604
				c-24.986,0-45.313-20.325-45.313-45.307C50.672,340.929,70.999,320.604,95.985,320.604z"/>
			<g>
				
					<rect x="58.613" y="284.768" transform="matrix(0.7568 -0.6536 0.6536 0.7568 -176.5555 112.6981)" style="fill:#B7A7D4;" width="9.142" height="17.731"/>
				
					<rect x="83.68" y="280.67" transform="matrix(0.7568 -0.6536 0.6536 0.7568 -190.4525 137.998)" style="fill:#263238;" width="13.108" height="88.57"/>
				
					<rect x="78.612" y="292.249" transform="matrix(0.7568 -0.6536 0.6536 0.7568 -190.7083 138.464)" style="fill:#EBEBEB;" width="24.245" height="66.572"/>
				<g>
					
						<rect x="106.253" y="332.12" transform="matrix(0.7568 -0.6536 0.6536 0.7568 -192.8913 152.6781)" style="fill:#FFFFFF;" width="4.995" height="6.92"/>
					
						<rect x="88.723" y="295.275" transform="matrix(0.7568 -0.6536 0.6536 0.7568 -183.8869 136.2851)" style="fill:#FFFFFF;" width="4.995" height="40.013"/>
				</g>
				<g>
					<path style="fill:#B7A7D4;" d="M88.399,324.522c3.763,4.358,3.282,10.941-1.076,14.705c-4.358,3.764-10.941,3.282-14.705-1.076
						c-3.764-4.358-3.282-10.941,1.076-14.705C78.051,319.682,84.635,320.164,88.399,324.522z"/>
					<path style="fill:none;stroke:#263238;stroke-miterlimit:10;" d="M85.369,327.138c2.319,2.685,2.022,6.741-0.663,9.06
						c-2.685,2.319-6.741,2.022-9.06-0.663c-2.319-2.685-2.022-6.741,0.663-9.06C78.995,324.156,83.051,324.453,85.369,327.138z"/>
				</g>
			</g>
			<path style="fill:#9182B5;" d="M104.98,377.3c11.444,0.287,24.776,0.175,35.332-11.713c0.222,9.222-15.777,14.316-15.777,14.316
				S110.536,383.569,104.98,377.3z"/>
			<g>
				<polygon style="fill:#38474F;" points="152.933,374.372 98.998,388.54 98.997,388.539 98.05,384.934 151.985,370.766 
					151.986,370.766 				"/>
			</g>
		</g>
		<g>
			<path style="fill:#B7A7D4;" d="M135.891,382.389c3.763,4.358,3.282,10.941-1.076,14.705c-4.358,3.764-10.942,3.282-14.705-1.076
				c-3.763-4.358-3.282-10.941,1.076-14.705C125.544,377.549,132.128,378.031,135.891,382.389z"/>
			<path style="fill:none;stroke:#263238;stroke-miterlimit:10;" d="M132.862,385.005c2.319,2.685,2.022,6.741-0.663,9.06
				c-2.685,2.319-6.741,2.022-9.06-0.663c-2.319-2.685-2.022-6.741,0.663-9.06C126.487,382.023,130.543,382.32,132.862,385.005z"/>
		</g>
		<g>
			<path style="fill:#38474F;" d="M51.117,407.825l-0.013,9.092l-0.013,9.092l24.08,0.033l0.008-5.951
				c0.002-1.735,1.752-3.139,3.908-3.136l34.025,0.033c2.156,0.003,3.902,1.412,3.899,3.147l-0.008,5.951l24.08,0.033l0.013-9.092
				l0.012-9.092L51.117,407.825z"/>
			<path style="fill:#263238;" d="M139.985,411.531c-2.321-0.488-4.893-0.23-7.26-0.251c-2.545-0.023-5.091-0.046-7.636-0.067
				c-5.014-0.042-10.027-0.038-15.041-0.039c-9.95-0.002-29.901-0.004-39.851-0.007c-2.777-0.001-5.554,0.018-8.331,0.032
				c-2.762,0.014-5.624-0.043-8.245,0.867c-0.551,0.191-0.553,0.883-0.001,1.076c2.272,0.796,4.684,0.834,7.086,0.881
				c2.544,0.049,5.092,0.048,7.636,0.059c5.014,0.023,10.027,0.026,15.041,0.038c9.95,0.025,29.901,0.111,39.851,0.055
				c2.777-0.016,5.554-0.032,8.331-0.049c1.388-0.009,2.777-0.017,4.165-0.026c1.419-0.009,2.857,0.076,4.252-0.213
				C141.197,413.637,141.2,411.786,139.985,411.531z"/>
			<path style="fill:#DBDBDB;" d="M70.241,401.181c1.752-1.082,4.244-0.671,6.179-0.706c2.178-0.04,4.356-0.097,6.534-0.148
				c4.271-0.1,8.544-0.143,12.816-0.148c4.271-0.006,8.546-0.058,12.816,0.003c4.398,0.063,8.709,0.492,13.067,1.132
				c1.325,0.195,1.326,2.205,0,2.4c-4.358,0.64-8.67,1.076-13.067,1.132c-4.271,0.054-8.545,0.008-12.816,0.003
				c-4.272-0.006-8.545-0.048-12.816-0.148c-2.178-0.051-4.356-0.108-6.534-0.148c-1.926-0.035-4.435,0.371-6.179-0.706
				C69.366,403.306,69.366,401.722,70.241,401.181z"/>
			<path style="fill:#38474F;" d="M144.668,402.66l-97.094-0.12c-2.337-0.003-4.235,1.889-4.238,4.226l-0.001,0.628
				c-0.003,2.337,1.889,4.235,4.226,4.238l97.094,0.12c2.337,0.003,4.235-1.889,4.238-4.226l0.001-0.628
				C148.897,404.561,147.005,402.664,144.668,402.66z"/>
		</g>
	</g>
	<g>
		<g>
			<g>
				
					<ellipse transform="matrix(0.7071 -0.7071 0.7071 0.7071 -132.8714 114.1514)" style="fill:#FFFFFF;" cx="71.357" cy="217.466" rx="28.703" ry="28.703"/>
			</g>
			<g>
				<path style="fill:#FFFFFF;" d="M70.67,219.167c0.939-1.163,1.331-2.783,1.803-4.179c0.507-1.502,1.001-3.01,1.458-4.528
					c0.904-3.002,1.791-6.005,2.74-8.994c0.162-0.509-0.598-0.771-0.784-0.27c-1.089,2.94-2.238,5.854-3.372,8.777
					c-0.56,1.442-1.086,2.897-1.597,4.357c-0.498,1.423-1.214,2.984-1.188,4.514C69.739,219.37,70.339,219.577,70.67,219.167z"/>
				<path style="fill:#FFFFFF;" d="M54.031,223.398c1.493,0.06,3.027-0.593,4.429-1.048c1.508-0.489,3.012-0.993,4.504-1.532
					c2.948-1.066,5.887-2.147,8.852-3.168c0.505-0.174,0.261-0.94-0.252-0.79c-3.009,0.881-6.032,1.698-9.055,2.532
					c-1.491,0.412-2.973,0.858-4.45,1.319c-1.439,0.449-3.119,0.807-4.331,1.74C53.313,222.771,53.505,223.376,54.031,223.398z"/>
				<path style="fill:#FFFFFF;" d="M86.724,226.847c2.569,0.455,5.021-1.26,5.475-3.829c0.455-2.569-1.26-5.021-3.829-5.475
					c-2.108-0.373-4.135,0.716-5.046,2.538c-0.142-0.029-0.283-0.062-0.427-0.089c-1.483-0.279-2.971-0.506-4.464-0.727
					c-2.945-0.437-5.876-0.961-8.821-1.394c-0.664-0.098-0.839,0.889-0.181,1.026c2.915,0.605,5.848,1.118,8.764,1.718
					c1.44,0.296,2.879,0.584,4.328,0.829c0.119,0.02,0.238,0.034,0.357,0.053C82.5,224.019,84.196,226.4,86.724,226.847z"/>
				<path style="fill:#FFFFFF;" d="M76.749,233.894c0.487,0.857,1.718,0.294,1.388-0.635c-0.93-2.617-2.222-5.111-3.416-7.616
					c-1.197-2.513-2.484-4.982-3.693-7.49c-0.329-0.681-1.368-0.206-1.067,0.489c1.107,2.554,2.136,5.141,3.256,7.689
					C74.332,228.872,75.376,231.48,76.749,233.894z"/>
				<path style="fill:#FFFFFF;" d="M69.594,222.898c-2.706-0.479-4.511-3.06-4.032-5.766c0.479-2.706,3.06-4.511,5.766-4.032
					c2.706,0.479,4.511,3.06,4.032,5.766C74.881,221.571,72.3,223.376,69.594,222.898z"/>
				<path style="fill:#FFFFFF;" d="M77.058,237.445c-2.286-0.405-3.812-2.586-3.407-4.872c0.405-2.286,2.586-3.812,4.872-3.407
					c2.286,0.404,3.812,2.586,3.407,4.872C81.525,236.324,79.344,237.85,77.058,237.445z"/>
				<path style="fill:#FFFFFF;" d="M74.823,206.412c-2.682-0.475-4.472-3.034-3.997-5.716c0.475-2.682,3.034-4.472,5.716-3.997
					c2.682,0.475,4.472,3.034,3.997,5.716C80.064,205.097,77.505,206.887,74.823,206.412z"/>
				<path style="fill:#FFFFFF;" d="M54.627,225.444c-2.024-0.358-3.375-2.29-3.017-4.314c0.358-2.024,2.29-3.375,4.314-3.017
					c2.024,0.358,3.375,2.29,3.017,4.314C58.583,224.452,56.652,225.802,54.627,225.444z"/>
			</g>
		</g>
		<g>
			
				<ellipse transform="matrix(0.9828 -0.1846 0.1846 0.9828 -35.1815 30.2403)" style="fill:#FFFFFF;" cx="144.782" cy="204.024" rx="28.703" ry="28.703"/>
			<g>
				<defs>
					
						<ellipse id="SVGID_1_" transform="matrix(0.9828 -0.1846 0.1846 0.9828 -35.1815 30.2403)" cx="144.782" cy="204.024" rx="28.703" ry="28.703"/>
				</defs>
				<clipPath id="SVGID_00000031919336767359968330000016404525787299515827_">
					<use xlink:href="#SVGID_1_"  style="overflow:visible;"/>
				</clipPath>
				<g style="clip-path:url(#SVGID_00000031919336767359968330000016404525787299515827_);">
					<polygon style="fill:#EBEBEB;" points="111.181,193.794 113.434,205.539 124.733,209.46 133.778,201.636 131.524,189.891 
						120.226,185.97 					"/>
					<polygon style="fill:none;stroke:#9182B5;stroke-miterlimit:10;" points="117.982,174.27 120.235,186.016 131.533,189.937 
						140.578,182.113 138.325,170.368 127.027,166.447 					"/>
					<polygon style="fill:none;stroke:#9182B5;stroke-miterlimit:10;" points="138.325,170.368 140.578,182.113 151.876,186.034 
						160.922,178.21 158.668,166.465 147.37,162.544 					"/>
					<polygon style="fill:none;stroke:#9182B5;stroke-miterlimit:10;" points="131.524,189.891 133.778,201.636 145.076,205.558 
						154.121,197.734 151.868,185.988 140.569,182.067 					"/>
					<polygon style="fill:none;stroke:#9182B5;stroke-miterlimit:10;" points="151.868,185.988 154.121,197.734 165.419,201.655 
						174.464,193.831 172.211,182.086 160.913,178.165 					"/>
					<polygon style="fill:none;stroke:#9182B5;stroke-miterlimit:10;" points="124.726,209.424 126.979,221.169 138.277,225.091 
						147.322,217.267 145.069,205.521 133.771,201.6 					"/>
					<polygon style="fill:#9182B5;" points="145.069,205.521 147.322,217.267 158.62,221.188 167.665,213.364 165.412,201.619 
						154.114,197.697 					"/>
					<polygon style="fill:none;stroke:#9182B5;stroke-miterlimit:10;" points="165.412,201.619 167.665,213.364 178.964,217.285 
						188.009,209.461 185.755,197.716 174.457,193.795 					"/>
					<polygon style="fill:none;stroke:#9182B5;stroke-miterlimit:10;" points="104.382,213.327 106.636,225.072 117.934,228.993 
						126.979,221.169 124.726,209.424 113.427,205.503 					"/>
					<polygon style="fill:none;stroke:#9182B5;stroke-miterlimit:10;" points="158.668,166.465 160.922,178.21 172.22,182.132 
						181.265,174.308 179.012,162.562 167.713,158.641 					"/>
					<polygon style="fill:none;stroke:#9182B5;stroke-miterlimit:10;" points="97.639,178.173 99.892,189.918 111.19,193.84 
						120.235,186.016 117.982,174.27 106.684,170.349 					"/>
					<polygon style="fill:none;stroke:#9182B5;stroke-miterlimit:10;" points="138.268,225.045 140.522,236.79 151.82,240.711 
						160.865,232.887 158.612,221.142 147.313,217.221 					"/>
					<polygon style="fill:none;stroke:#9182B5;stroke-miterlimit:10;" points="158.612,221.142 160.865,232.887 172.163,236.809 
						181.208,228.985 178.955,217.24 167.657,213.318 					"/>
					<polygon style="fill:none;stroke:#9182B5;stroke-miterlimit:10;" points="117.925,228.947 120.178,240.693 131.477,244.614 
						140.522,236.79 138.268,225.045 126.97,221.124 					"/>
				</g>
			</g>
			
				<ellipse transform="matrix(0.9828 -0.1846 0.1846 0.9828 -35.1815 30.2403)" style="fill:none;stroke:#DBDBDB;stroke-miterlimit:10;" cx="144.782" cy="204.024" rx="28.703" ry="28.703"/>
		</g>
		<g>
			
				<ellipse transform="matrix(0.0394 -0.9992 0.9992 0.0394 -148.6662 375.4997)" style="fill:#FFFFFF;" cx="120.971" cy="265.074" rx="28.703" ry="28.703"/>
			<g>
				<defs>
					
						<ellipse id="SVGID_00000003103595784462541680000012430038710393873076_" transform="matrix(0.0394 -0.9992 0.9992 0.0394 -148.6662 375.4997)" cx="120.971" cy="265.074" rx="28.703" ry="28.703"/>
				</defs>
				<clipPath id="SVGID_00000031888167139957815640000002345265802567335815_">
					<use xlink:href="#SVGID_00000003103595784462541680000012430038710393873076_"  style="overflow:visible;"/>
				</clipPath>
				<g style="clip-path:url(#SVGID_00000031888167139957815640000002345265802567335815_);">
					<path style="fill:#263238;" d="M120.269,248.376c-6.225,0.458-11.517,3.635-17.15,5.971
						c-5.865,2.433-14.037,4.012-18.573-1.765c-0.499-0.635-1.375,0.038-0.998,0.717c2.879,5.176,9.598,6.752,15.081,5.824
						c6.342-1.073,11.875-4.576,18.049-6.194c2.657-0.696,5.509-0.955,8.201-0.308c3.011,0.723,5.313,2.815,6.948,5.373
						c3.57,5.586,3.76,12.544,5.7,18.727c1.988,6.337,6.756,13.29,14.177,12.902c1.63-0.085,1.583-2.408,0.111-2.756
						c-5.913-1.397-9.272-6.91-10.847-12.363c-1.781-6.17-2.251-12.636-5.592-18.272
						C132.132,250.76,126.587,247.911,120.269,248.376z"/>
					<path style="fill:#DBDBDB;" d="M96.896,234.961c-0.752,0.567-1.147,1.544-1.614,2.347c-0.445,0.765-0.89,1.53-1.336,2.295
						c-0.965,1.657-1.929,3.315-2.894,4.973c-1.934,3.322-3.818,6.665-5.635,10.053c-0.423,0.788,0.662,1.618,1.17,0.823
						c2.102-3.292,4.126-6.624,6.112-9.987c0.975-1.651,1.949-3.301,2.924-4.952l1.462-2.476c0.457-0.774,1.004-1.485,1.126-2.387
						C98.309,234.919,97.425,234.562,96.896,234.961z"/>
					<path style="fill:#DBDBDB;" d="M100.467,239.064c-0.788,0.473-1.035,1.153-1.469,1.949c-0.39,0.715-0.784,1.428-1.176,2.141
						c-0.883,1.607-1.776,3.208-2.689,4.798c-1.794,3.126-3.677,6.204-5.361,9.391c-0.432,0.818,0.619,1.633,1.208,0.85
						c2.202-2.927,4.097-6.069,5.949-9.226c0.892-1.521,1.773-3.05,2.633-4.589c0.463-0.83,0.915-1.666,1.365-2.502
						c0.406-0.755,0.78-1.314,0.738-2.191C101.638,239.162,100.903,238.802,100.467,239.064z"/>
					<path style="fill:#DBDBDB;" d="M104.553,245.415c-0.351-0.005-0.781,0.105-0.966,0.444c-1.97,3.594-3.994,7.155-5.958,10.751
						c-0.436,0.797,0.624,1.607,1.182,0.832c1.196-1.661,2.352-3.327,3.429-5.068c1.075-1.737,2.082-3.515,3.075-5.299
						c0.169-0.305,0.303-0.73,0.091-1.06C105.193,245.681,104.985,245.421,104.553,245.415z"/>
					<path style="fill:#DBDBDB;" d="M114.162,250.645c-0.967,0.962-1.446,2.589-2.03,3.813c-0.6,1.258-1.19,2.519-1.759,3.79
						c-1.183,2.642-2.288,5.319-3.342,8.015c-0.34,0.87,1.002,1.364,1.355,0.505c1.083-2.632,2.25-5.227,3.49-7.789
						c0.609-1.257,1.231-2.508,1.877-3.747c0.623-1.195,1.651-2.477,1.901-3.804C115.798,250.667,114.709,250.101,114.162,250.645z"
						/>
					<path style="fill:#DBDBDB;" d="M122.432,249.921c-0.721,0.749-0.974,1.652-1.418,2.572c-0.491,1.019-1.013,2.025-1.51,3.041
						c-0.96,1.96-1.9,3.931-2.819,5.912c-1.873,4.037-3.628,8.116-5.268,12.253c-0.387,0.976,1.097,1.508,1.515,0.565
						c1.772-3.995,3.589-7.974,5.467-11.921c0.904-1.9,1.828-3.791,2.77-5.673c0.507-1.012,1.007-2.031,1.539-3.031
						c0.51-0.959,1.173-1.768,1.381-2.849C124.251,249.956,123.03,249.299,122.432,249.921z"/>
					<path style="fill:#DBDBDB;" d="M128.529,251.712c-1.16,1.842-1.865,4.098-2.683,6.113c-0.858,2.112-1.75,4.213-2.566,6.341
						c-1.633,4.258-3.33,8.487-5.012,12.726c-0.373,0.941,1.046,1.443,1.457,0.543c1.865-4.085,3.684-8.188,5.623-12.238
						c0.951-1.986,1.813-4.016,2.712-6.026c0.905-2.024,2.114-4.158,2.652-6.309C131.027,251.6,129.345,250.416,128.529,251.712z"/>
					<path style="fill:#DBDBDB;" d="M134.325,259.927c-0.55-0.054-0.94,0.279-1.173,0.733c-0.595,1.16-0.928,2.486-1.385,3.707
						c-0.462,1.234-0.95,2.46-1.46,3.675c-1.018,2.426-2.121,4.82-3.289,7.177c-0.412,0.832,0.977,1.571,1.446,0.762
						c1.364-2.352,2.624-4.756,3.781-7.217c0.562-1.195,1.101-2.401,1.619-3.616c0.551-1.294,1.181-2.603,1.481-3.982
						c0.082-0.375-0.172-0.835-0.477-1.038C134.695,260.013,134.534,259.947,134.325,259.927z"/>
					<path style="fill:#DBDBDB;" d="M146.266,264.585c-0.453,0.524-0.639,1.281-0.885,1.921c-0.222,0.575-0.443,1.151-0.665,1.726
						c-0.48,1.247-0.96,2.493-1.44,3.74c-0.96,2.494-1.899,4.994-2.825,7.5c-0.46,1.244,1.426,1.938,1.923,0.717
						c1.007-2.476,2.001-4.956,2.975-7.444c0.487-1.244,0.974-2.488,1.46-3.732c0.225-0.574,0.449-1.148,0.674-1.723
						c0.253-0.647,0.617-1.317,0.635-2.018C148.148,264.211,146.937,263.81,146.266,264.585z"/>
					<path style="fill:#DBDBDB;" d="M156.131,261.114c-0.65,0.827-0.98,1.895-1.416,2.85c-0.476,1.046-0.943,2.095-1.405,3.147
						c-0.89,2.027-1.796,4.049-2.662,6.087c-1.757,4.136-3.666,8.256-5.125,12.51c-0.4,1.167,1.212,1.692,1.749,0.652
						c2.065-4.002,3.725-8.234,5.501-12.37c0.873-2.033,1.706-4.083,2.555-6.127c0.44-1.06,0.874-2.121,1.3-3.186
						c0.391-0.979,0.905-1.94,1.055-2.987C157.809,260.797,156.629,260.481,156.131,261.114z"/>
					<g>
						<path style="fill:#B7A7D4;" d="M148.486,260.418c-6.999,2.846-12.042,8.834-18.623,12.369
							c-5.142,2.762-12.457,4.299-16.937-0.513c-4.777-5.131-4.475-12.877-5.198-19.383c-0.442-3.981-1.382-7.918-3.481-11.373
							c-2.157-3.551-5.15-6.169-8.773-8.159c-0.874-0.48-1.791,0.736-0.913,1.297c3.094,1.977,5.607,4.969,7.27,8.234
							c1.619,3.178,2.187,6.655,2.48,10.178c0.577,6.954,0.309,14.201,4.451,20.215c3.948,5.733,11.045,7.114,17.444,5.245
							c7.152-2.089,12.415-7.275,18.396-11.424c3.066-2.127,6.394-3.817,10.123-4.337c3.56-0.497,6.665,0.431,9.742,2.186
							c1.514,0.864,3.09-0.787,2.051-2.241C162.593,257.217,153.929,258.205,148.486,260.418z"/>
					</g>
				</g>
			</g>
			
				<ellipse transform="matrix(0.0394 -0.9992 0.9992 0.0394 -148.6662 375.4997)" style="fill:none;stroke:#DBDBDB;stroke-miterlimit:10;" cx="120.971" cy="265.074" rx="28.703" ry="28.703"/>
		</g>
		<g>
			<g>
				
					<ellipse transform="matrix(0.7071 -0.7071 0.7071 0.7071 -132.8714 114.1514)" style="fill:none;stroke:#DBDBDB;stroke-miterlimit:10;" cx="71.357" cy="217.466" rx="28.703" ry="28.703"/>
			</g>
			<g>
				<path style="fill:#B7A7D4;" d="M70.67,219.167c0.939-1.163,1.331-2.783,1.803-4.179c0.507-1.502,1.001-3.01,1.458-4.528
					c0.904-3.002,1.791-6.005,2.74-8.994c0.162-0.509-0.598-0.771-0.784-0.27c-1.089,2.94-2.238,5.854-3.372,8.777
					c-0.56,1.442-1.086,2.897-1.597,4.357c-0.498,1.423-1.214,2.984-1.188,4.514C69.739,219.37,70.339,219.577,70.67,219.167z"/>
				<path style="fill:#38474F;" d="M54.031,223.398c1.493,0.06,3.027-0.593,4.429-1.048c1.508-0.489,3.012-0.993,4.504-1.532
					c2.948-1.066,5.887-2.147,8.852-3.168c0.505-0.174,0.261-0.94-0.252-0.79c-3.009,0.881-6.032,1.698-9.055,2.532
					c-1.491,0.412-2.973,0.858-4.45,1.319c-1.439,0.449-3.119,0.807-4.331,1.74C53.313,222.771,53.505,223.376,54.031,223.398z"/>
				<path style="fill:#38474F;" d="M86.724,226.847c2.569,0.455,5.021-1.26,5.475-3.829c0.455-2.569-1.26-5.021-3.829-5.475
					c-2.108-0.373-4.135,0.716-5.046,2.538c-0.142-0.029-0.283-0.062-0.427-0.089c-1.483-0.279-2.971-0.506-4.464-0.727
					c-2.945-0.437-5.876-0.961-8.821-1.394c-0.664-0.098-0.839,0.889-0.181,1.026c2.915,0.605,5.848,1.118,8.764,1.718
					c1.44,0.296,2.879,0.584,4.328,0.829c0.119,0.02,0.238,0.034,0.357,0.053C82.5,224.019,84.196,226.4,86.724,226.847z"/>
				<path style="fill:#B7A7D4;" d="M76.749,233.894c0.487,0.857,1.718,0.294,1.388-0.635c-0.93-2.617-2.222-5.111-3.416-7.616
					c-1.197-2.513-2.484-4.982-3.693-7.49c-0.329-0.681-1.368-0.206-1.067,0.489c1.107,2.554,2.136,5.141,3.256,7.689
					C74.332,228.872,75.376,231.48,76.749,233.894z"/>
				<path style="fill:#B7A7D4;" d="M69.594,222.898c-2.706-0.479-4.511-3.06-4.032-5.766c0.479-2.706,3.06-4.511,5.766-4.032
					c2.706,0.479,4.511,3.06,4.032,5.766C74.881,221.571,72.3,223.376,69.594,222.898z"/>
				<path style="fill:#B7A7D4;" d="M77.058,237.445c-2.286-0.405-3.812-2.586-3.407-4.872c0.405-2.286,2.586-3.812,4.872-3.407
					c2.286,0.404,3.812,2.586,3.407,4.872C81.525,236.324,79.344,237.85,77.058,237.445z"/>
				<path style="fill:#B7A7D4;" d="M74.823,206.412c-2.682-0.475-4.472-3.034-3.997-5.716c0.475-2.682,3.034-4.472,5.716-3.997
					c2.682,0.475,4.472,3.034,3.997,5.716C80.064,205.097,77.505,206.887,74.823,206.412z"/>
				<path style="fill:#38474F;" d="M54.627,225.444c-2.024-0.358-3.375-2.29-3.017-4.314c0.358-2.024,2.29-3.375,4.314-3.017
					c2.024,0.358,3.375,2.29,3.017,4.314C58.583,224.452,56.652,225.802,54.627,225.444z"/>
			</g>
		</g>
		<g>
			
				<circle style="fill:none;stroke:#DBDBDB;stroke-miterlimit:10;stroke-dasharray:3.0587,2.0391;" cx="138.426" cy="360.629" r="12.173"/>
		</g>
		
			<line style="fill:none;stroke:#DBDBDB;stroke-miterlimit:10;stroke-dasharray:3,2;" x1="136.484" y1="348.611" x2="126.379" y2="293.262"/>
		
			<line style="fill:none;stroke:#DBDBDB;stroke-miterlimit:10;stroke-dasharray:3,2;" x1="90.734" y1="238.644" x2="99.945" y2="245.536"/>
		
			<line style="fill:none;stroke:#DBDBDB;stroke-miterlimit:10;stroke-dasharray:3,2;" x1="132.402" y1="238.745" x2="135.85" y2="231.305"/>
	</g>
	<g>
		<g>
			<path style="fill:#EBEBEB;" d="M384.557,132.512c-0.384,2.248,0.303,4.698,0.716,6.909c0.444,2.379,0.911,4.754,1.435,7.116
				c1.035,4.672,2.094,9.332,3.057,14.019c0.164,0.799,1.371,0.58,1.245-0.226c-0.742-4.727-1.385-9.463-2.055-14.201
				c-0.331-2.338-0.714-4.668-1.122-6.993c-0.398-2.266-0.609-4.878-1.784-6.895C385.646,131.548,384.692,131.72,384.557,132.512z"
				/>
			<path style="fill:#EBEBEB;" d="M403.559,114.472c-2.033,1.034-3.589,3.047-5.117,4.698c-1.643,1.776-3.271,3.568-4.854,5.398
				c-3.131,3.618-6.238,7.249-9.424,10.82c-0.543,0.608,0.353,1.447,0.924,0.864c3.35-3.417,6.766-6.759,10.168-10.123
				c1.678-1.66,3.319-3.359,4.941-5.074c1.581-1.672,3.551-3.4,4.469-5.546C404.981,114.77,404.275,114.108,403.559,114.472z"/>
			<path style="fill:#EBEBEB;" d="M357.455,134.257c-3.76,1.31-5.746,5.421-4.435,9.181c1.311,3.76,5.421,5.746,9.181,4.435
				c3.085-1.075,4.972-4.036,4.827-7.141c0.211-0.067,0.424-0.128,0.634-0.199c2.183-0.735,4.334-1.542,6.487-2.36
				c4.247-1.614,8.541-3.101,12.785-4.722c0.957-0.365,0.454-1.81-0.523-1.501c-4.332,1.369-8.62,2.872-12.95,4.248
				c-2.139,0.68-4.268,1.369-6.382,2.123c-0.173,0.062-0.342,0.132-0.514,0.196C365.187,134.873,361.155,132.967,357.455,134.257z"
				/>
			<path style="fill:#EBEBEB;" d="M365.482,117.435c-1.287-0.777-2.507,0.89-1.374,1.881c3.19,2.791,6.77,5.149,10.228,7.594
				c3.468,2.453,7.022,4.782,10.502,7.219c0.946,0.662,1.976-0.747,1.057-1.447c-3.379-2.574-6.678-5.252-10.069-7.811
				C372.445,122.32,369.11,119.626,365.482,117.435z"/>
			<path style="fill:#EBEBEB;" d="M383.208,126.742c3.96-1.38,8.288,0.711,9.668,4.671c1.38,3.96-0.711,8.288-4.671,9.669
				c-3.96,1.38-8.288-0.711-9.668-4.671C377.158,132.451,379.249,128.122,383.208,126.742z"/>
			<path style="fill:#EBEBEB;" d="M362.423,112.938c3.346-1.166,7.004,0.601,8.17,3.947c1.166,3.346-0.601,7.004-3.947,8.17
				c-3.346,1.166-7.004-0.601-8.17-3.947C357.31,117.762,359.077,114.104,362.423,112.938z"/>
			<path style="fill:#EBEBEB;" d="M388.538,152.592c3.925-1.368,8.216,0.705,9.584,4.63c1.368,3.925-0.705,8.216-4.63,9.584
				c-3.925,1.368-8.216-0.705-9.584-4.63C382.54,158.251,384.613,153.96,388.538,152.592z"/>
			<path style="fill:#EBEBEB;" d="M401.238,112.191c2.963-1.033,6.201,0.532,7.234,3.495s-0.532,6.201-3.495,7.234
				c-2.963,1.033-6.201-0.532-7.234-3.495C396.71,116.463,398.275,113.224,401.238,112.191z"/>
		</g>
		<g>
			<path style="fill:#EBEBEB;" d="M199.352,152.391c1.138,1.289,2.901,2.044,4.394,2.847c1.606,0.864,3.221,1.713,4.856,2.523
				c3.232,1.602,6.468,3.184,9.675,4.835c0.546,0.281,0.989-0.531,0.456-0.838c-3.126-1.8-6.21-3.662-9.308-5.51
				c-1.529-0.911-3.078-1.788-4.636-2.648c-1.518-0.838-3.152-1.95-4.891-2.214C199.301,151.297,198.951,151.938,199.352,152.391z"
				/>
			<path style="fill:#EBEBEB;" d="M214.191,137.117c-1.467,0.897-2.517,2.502-3.567,3.833c-1.13,1.432-2.247,2.875-3.328,4.344
				c-2.139,2.904-4.259,5.817-6.442,8.688c-0.372,0.489,0.351,1.066,0.745,0.595c2.316-2.766,4.685-5.479,7.042-8.209
				c1.163-1.347,2.296-2.721,3.413-4.105c1.089-1.35,2.467-2.765,3.03-4.432C215.278,137.257,214.708,136.801,214.191,137.117z"/>
			<path style="fill:#EBEBEB;" d="M197.843,173.441c0.491,2.961,3.29,4.964,6.251,4.473c2.961-0.491,4.964-3.29,4.473-6.251
				c-0.403-2.43-2.36-4.211-4.686-4.502c-0.023-0.166-0.041-0.331-0.067-0.497c-0.266-1.716-0.59-3.417-0.921-5.121
				c-0.654-3.362-1.208-6.742-1.867-10.103c-0.149-0.758-1.286-0.57-1.182,0.196c0.461,3.394,1.028,6.772,1.494,10.165
				c0.23,1.676,0.469,3.346,0.758,5.013c0.024,0.137,0.054,0.271,0.079,0.407C199.293,167.777,197.36,170.527,197.843,173.441z"/>
			<path style="fill:#EBEBEB;" d="M184.09,141.053c-1.001-0.532-1.85,0.773-0.957,1.472c2.516,1.969,5.309,3.596,8.012,5.294
				c2.712,1.703,5.483,3.31,8.203,5c0.739,0.459,1.456-0.643,0.736-1.132c-2.649-1.798-5.244-3.678-7.901-5.463
				C189.533,144.443,186.911,142.553,184.09,141.053z"/>
			<path style="fill:#EBEBEB;" d="M195.327,150.454c1.063-2.977,4.337-4.529,7.314-3.467c2.977,1.063,4.529,4.337,3.467,7.314
				c-1.063,2.977-4.337,4.529-7.314,3.467C195.816,156.706,194.264,153.432,195.327,150.454z"/>
			<path style="fill:#EBEBEB;" d="M181.602,137.795c2.47-1.016,5.297,0.163,6.313,2.634c1.016,2.47-0.163,5.296-2.633,6.312
				c-2.47,1.016-5.297-0.163-6.312-2.633C177.952,141.637,179.131,138.811,181.602,137.795z"/>
			<path style="fill:#EBEBEB;" d="M213.022,159.551c1.053-2.951,4.299-4.49,7.251-3.436c2.951,1.053,4.49,4.299,3.436,7.251
				c-1.053,2.951-4.299,4.49-7.251,3.436C213.507,165.748,211.969,162.502,213.022,159.551z"/>
			<path style="fill:#EBEBEB;" d="M212.312,135.54c2.165-0.951,4.692,0.033,5.643,2.198c0.951,2.165-0.033,4.692-2.198,5.643
				c-2.165,0.951-4.692-0.033-5.643-2.198C209.163,139.018,210.147,136.492,212.312,135.54z"/>
		</g>
	</g>
	<g>
		<path style="fill:#FFFFFF;" d="M407.443,185.683c-5.754,0-5.757,8.93,0,8.93C413.197,194.613,413.199,185.683,407.443,185.683z"/>
		<path style="fill:#FFFFFF;" d="M229.782,176.224c-5.115,0-5.117,7.938,0,7.938C234.897,184.162,234.899,176.224,229.782,176.224z"
			/>
		<path style="fill:#FFFFFF;" d="M338.523,97.349c-5.115,0-5.117,7.938,0,7.938C343.637,105.286,343.64,97.349,338.523,97.349z"/>
		<path style="fill:#FFFFFF;" d="M165.457,157.845c-5.115,0-5.117,7.938,0,7.938C170.571,165.783,170.574,157.845,165.457,157.845z"
			/>
		<path style="fill:#FFFFFF;" d="M153.204,314.83c-5.115,0-5.117,7.938,0,7.938C158.319,322.767,158.321,314.83,153.204,314.83z"/>
		<path style="fill:#FFFFFF;" d="M245.863,360.011c-5.115,0-5.117,7.938,0,7.938C250.978,367.948,250.98,360.011,245.863,360.011z"
			/>
		<path style="fill:#F7F7F7;" d="M431.948,133.34c-5.115,0-5.117,7.938,0,7.938C437.063,141.278,437.065,133.34,431.948,133.34z"/>
		<path style="fill:#F7F7F7;" d="M244.332,64.42c-5.115,0-5.117,7.938,0,7.938C249.447,72.358,249.449,64.42,244.332,64.42z"/>
		<path style="fill:#F7F7F7;" d="M98.834,167.801c-5.115,0-5.117,7.938,0,7.938C103.949,175.738,103.951,167.801,98.834,167.801z"/>
		<path style="fill:#F7F7F7;" d="M72.032,265.054c-5.115,0-5.117,7.938,0,7.938C77.146,272.992,77.148,265.054,72.032,265.054z"/>
		<path style="fill:#F7F7F7;" d="M467.174,349.29c-5.115,0-5.117,7.938,0,7.938C472.288,357.228,472.29,349.29,467.174,349.29z"/>
	</g>
</g>
</svg>
